<svg width="121" height="121" viewBox="0 0 121 121" fill="none" xmlns="http://www.w3.org/2000/svg">
<path d="M118.851 118.857C118.63 117.613 118.639 116.302 118.567 115.041C118.254 111.538 117.926 108.024 117.374 104.572L117.004 102.003C116.799 100.417 116.448 98.8529 116.177 97.2778C115.778 94.9106 115.169 92.5811 114.556 90.2696C114.239 89.0967 113.86 87.9527 113.499 86.8014C113.242 85.9177 112.996 85.0682 112.74 84.1827C111.944 81.3719 111.233 78.5269 110.298 75.7466C110.239 75.5096 109.799 73.9865 108.627 70.4537C107.457 66.9262 105.455 61.4051 101.698 53.4755C101.291 52.6889 100.818 52.0333 100.454 51.2161C100.047 50.266 99.6245 49.3249 99.1739 48.3963C98.5951 47.1804 98.1035 45.9267 97.5514 44.7018C96.7713 42.9524 95.7241 41.2677 94.789 39.5956C93.2752 36.8943 91.699 34.2469 90.0604 31.6157L89.877 31.3427L86.7852 26.8238L85.1911 24.656C84.7566 24.0292 84.2009 23.4472 83.9142 22.736C83.7681 22.375 83.6363 22.0284 83.5099 21.6638C83.4119 21.3782 83.2588 21.0405 83.2659 20.755C83.2748 20.3365 83.7022 20.1084 84.0531 20.164C84.4823 20.2341 84.8064 20.2467 85.2125 20.6166C85.5847 20.9579 85.9125 21.4159 86.2366 21.8146C87.0452 22.8061 87.7736 23.8514 88.5181 24.8895L89.7541 26.7448L91.1576 28.8552C91.6687 29.6418 92.2155 30.4034 92.6999 31.208L94.3064 33.8195L96.0287 36.6231L97.7491 39.6585C98.344 40.7235 98.9656 41.7742 99.5408 42.8501L101.295 46.2284C101.893 47.3923 102.52 48.54 103.06 49.7326L104.779 53.3624C105.379 54.5837 105.903 55.8391 106.439 57.0892L108.061 60.8735L109.554 64.7243C110.036 66.0066 110.567 67.2729 110.991 68.5786L112.312 72.4293C112.765 73.6848 113.141 74.9653 113.524 76.2441L114.651 79.9853C115.005 81.1959 115.297 82.4244 115.623 83.6421L116.535 87.1588L117.276 90.5354C118.696 95.805 119.428 102.238 119.832 104.676C120.126 106.254 120.284 107.858 120.38 109.46C120.48 110.599 120.578 111.731 120.678 112.864C120.801 113.949 120.909 115.03 120.945 116.122C120.963 116.871 120.981 117.631 120.998 118.383C121.018 119.05 120.874 119.694 120.831 120.346C120.785 121.038 120.291 121.013 119.843 120.993C119.695 120.986 119.572 120.991 119.454 120.858C119.283 120.666 119.175 120.452 119.1 120.226C118.956 119.806 118.936 119.335 118.851 118.857Z" fill="#CACDD0"/>
<path d="M117.03 118.696C116.305 117.568 115.762 116.286 115.167 115.083C114.323 113.416 113.349 111.817 112.437 110.188C111.541 108.549 110.533 106.982 109.528 105.422L108.052 103.098C107.167 101.646 106.121 100.306 105.163 98.9055C103.733 96.797 102.094 94.8357 100.459 92.8941C99.6242 91.9117 98.7569 90.9777 97.8753 90.0474C97.2234 89.3218 96.5965 88.6249 95.9429 87.8957C93.8983 85.5698 91.8643 83.2188 89.6737 81.0114C89.5098 80.8103 88.3646 79.5799 85.5613 76.8032C82.7615 74.0319 78.1968 69.7878 70.7201 64.2578C69.9453 63.7261 69.1813 63.3454 68.4315 62.767C67.5748 62.0828 66.7039 61.4236 65.808 60.795C64.6486 59.9616 63.5479 59.0546 62.4081 58.2015C60.7891 56.9765 58.9404 55.9708 57.2128 54.9039C55.8201 54.0328 54.4024 53.2192 52.974 52.4181C51.5474 51.6171 50.1404 50.7748 48.6746 50.0348L48.3612 49.8839L43.1214 47.391C42.263 46.9887 41.3547 46.6744 40.498 46.272C39.7624 45.938 38.9449 45.7009 38.2949 45.2178C37.9654 44.9735 37.6537 44.7328 37.3402 44.4742C37.0944 44.2713 36.7703 44.0503 36.6171 43.7953C36.3945 43.4217 36.6474 43.0068 36.9947 42.8811C37.4168 42.7284 37.7142 42.5776 38.2824 42.7015C38.8042 42.8164 39.3528 43.0571 39.8639 43.2457C41.1391 43.7163 42.3716 44.2748 43.613 44.8191L45.7395 45.859L48.1563 47.0461C49.0451 47.497 49.957 47.8975 50.8261 48.386L53.6828 49.9486L56.7462 51.6297L59.9146 53.5515C61.0171 54.2304 62.1409 54.8788 63.2273 55.5828L66.5863 57.8315C67.7369 58.611 68.9106 59.3545 70.013 60.2005L73.4468 62.7311C74.6258 63.5663 75.739 64.4895 76.861 65.3983L80.261 68.1498L83.5488 71.0558C84.6281 72.0329 85.7536 72.9615 86.7777 73.9996L89.8785 77.017C90.9133 77.9868 91.875 79.0303 92.8421 80.0685L95.6811 83.0984C96.5876 84.0844 97.4318 85.1298 98.3098 86.1427L100.812 89.0865L103.061 91.9961C106.827 96.4126 110.381 102.323 111.824 104.516C112.798 105.921 113.653 107.406 114.428 108.931C115.012 109.998 115.593 111.059 116.175 112.121C116.761 113.123 117.315 114.141 117.807 115.196C118.138 115.921 118.474 116.658 118.807 117.387C119.107 118.03 119.246 118.718 119.479 119.372C119.726 120.065 119.262 120.234 118.84 120.388C118.701 120.438 118.59 120.492 118.426 120.408C118.188 120.286 117.999 120.122 117.835 119.93C117.525 119.58 117.308 119.129 117.03 118.696Z" fill="#CACDD0"/>
<path d="M108.352 114.876C107.796 114.461 107.397 113.87 106.95 113.353C105.662 111.954 104.342 110.573 102.96 109.283L101.949 108.312C101.334 107.703 100.666 107.151 100.027 106.569C99.0706 105.691 98.0109 104.931 96.9601 104.177C96.4241 103.796 95.8363 103.494 95.2913 103.135C94.8835 102.851 94.4952 102.582 94.0838 102.295C92.7872 101.399 91.5993 100.342 90.2564 99.5037C90.1513 99.4246 89.4763 98.8948 87.8253 97.7525C86.1743 96.612 83.5081 94.8932 79.28 92.7559C78.8401 92.5637 78.393 92.5008 77.9745 92.2602C77.4936 91.9764 77.0127 91.6908 76.5229 91.425C75.8853 91.0712 75.2905 90.6347 74.6671 90.2575C73.7784 89.7169 72.7721 89.3416 71.821 88.9303C70.284 88.2675 68.763 87.5796 67.1957 86.9833L67.0283 86.9259L64.2125 86.0027C63.7512 85.8572 63.2686 85.7602 62.8145 85.5968C62.4262 85.4585 61.9827 85.4351 61.6514 85.137C61.484 84.9861 61.3255 84.8352 61.1688 84.6682C61.0459 84.5371 60.8785 84.406 60.809 84.203C60.7093 83.9049 60.8803 83.4541 61.0833 83.2529C61.3309 83.0069 61.509 82.7949 61.8224 82.7752C62.1092 82.7572 62.403 82.8524 62.6791 82.9081C63.3666 83.0446 64.0255 83.2745 64.6899 83.4882L65.8386 83.8959L67.1441 84.3593C67.625 84.5353 68.113 84.6898 68.5903 84.882L70.1504 85.4926L71.8246 86.1482L73.5754 86.9007L75.4098 87.6964L77.2906 88.5836C77.9353 88.8908 78.5871 89.1817 79.2176 89.5194L81.1678 90.5234C81.8322 90.8539 82.4787 91.2238 83.1252 91.5866L85.0879 92.6876L87.0167 93.8587C87.6525 94.2538 88.3044 94.6256 88.9224 95.0476L90.7782 96.2744C91.3927 96.6677 91.9822 97.0951 92.5753 97.5208L94.31 98.7637L95.9521 100.021L97.5194 101.239L98.9673 102.453C101.398 104.19 103.796 106.812 104.813 107.701C105.486 108.267 106.075 108.924 106.638 109.599C107.044 110.073 107.466 110.531 107.89 110.988C108.303 111.417 108.731 111.834 109.101 112.302C109.347 112.626 109.604 112.963 109.853 113.288C110.077 113.576 110.17 113.96 110.339 114.282C110.521 114.623 110.131 114.926 109.778 115.205C109.662 115.296 109.57 115.377 109.438 115.392C109.246 115.415 109.096 115.39 108.968 115.336C108.727 115.234 108.565 115.036 108.352 114.876Z" fill="#CACDD0"/>
<path d="M20.2152 17.4384C20.8358 15.5244 23.5379 15.5244 24.1585 17.4384L27.7388 28.4802C28.0163 29.3362 28.8123 29.9157 29.7104 29.9157H41.2965C43.3048 29.9157 44.1398 32.4909 42.5151 33.6738L33.1418 40.498C32.4151 41.027 32.1111 41.9647 32.3886 42.8206L35.9689 53.8624C36.5895 55.7764 34.4035 57.368 32.7787 56.1851L23.4054 49.3608C22.6788 48.8318 21.6949 48.8318 20.9683 49.3608L11.5949 56.1851C9.97018 57.368 7.78411 55.7764 8.4047 53.8624L11.985 42.8206C12.2625 41.9647 11.9585 41.027 11.2319 40.498L1.85855 33.6738C0.233809 32.4909 1.06881 29.9157 3.07711 29.9157H14.6632C15.5613 29.9157 16.3573 29.3362 16.6349 28.4802L20.2152 17.4384Z" stroke="#CACDD0" stroke-width="2"/>
<path d="M69.553 2.43546C70.1736 0.521516 72.8757 0.521511 73.4963 2.43546L75.3918 8.28104C75.6693 9.13699 76.4653 9.7165 77.3634 9.7165H83.4971C85.5054 9.7165 86.3404 12.2917 84.7157 13.4746L79.7534 17.0874C79.0268 17.6164 78.7228 18.554 79.0003 19.41L80.8957 25.2556C81.5163 27.1695 79.3303 28.7611 77.7055 27.5782L72.7432 23.9654C72.0166 23.4364 71.0327 23.4364 70.3061 23.9654L65.3438 27.5782C63.7191 28.7611 61.533 27.1695 62.1536 25.2556L64.049 19.41C64.3266 18.554 64.0225 17.6164 63.2959 17.0874L58.3336 13.4746C56.7089 12.2917 57.5439 9.7165 59.5522 9.7165H65.6859C66.5841 9.7165 67.38 9.13699 67.6576 8.28104L69.553 2.43546Z" stroke="#CACDD0" stroke-width="1.6"/>
<path d="M48.4178 67.4751C48.7281 66.5181 50.0792 66.5181 50.3895 67.4751L52.7814 74.8518C52.9201 75.2797 53.3181 75.5695 53.7672 75.5695H61.5075C62.5117 75.5695 62.9292 76.8571 62.1168 77.4485L55.8548 82.0076C55.4915 82.2721 55.3394 82.7409 55.4782 83.1689L57.8701 90.5456C58.1804 91.5026 57.0874 92.2984 56.275 91.7069L50.0129 87.1479C49.6496 86.8834 49.1577 86.8834 48.7944 87.1479L42.5323 91.7069C41.72 92.2984 40.6269 91.5026 40.9372 90.5456L43.3291 83.1689C43.4679 82.7409 43.3159 82.2721 42.9526 82.0076L36.6905 77.4485C35.8781 76.8571 36.2956 75.5695 37.2998 75.5695H45.0401C45.4892 75.5695 45.8872 75.2797 46.0259 74.8518L48.4178 67.4751Z" stroke="#CACDD0" stroke-width="1.4"/>
</svg>
