<svg width="120" height="120" viewBox="0 0 120 120" fill="none" xmlns="http://www.w3.org/2000/svg">
<g opacity="0.6" clip-path="url(#clip0_1_7634)">
<g style="mix-blend-mode:multiply">
<g opacity="0.8">
<g opacity="0.7">
<path d="M75.6068 46.6138C75.6021 46.6124 75.5961 46.6104 75.5961 46.6104L75.5915 46.6111L75.5895 46.6104C75.5895 46.6104 75.5922 46.6071 75.5948 46.6038C75.5961 46.6011 75.5975 46.5978 75.5975 46.5958C75.5975 46.5938 75.5994 46.5939 75.5994 46.5939C75.5994 46.5939 75.6014 46.5978 75.6034 46.6005C75.6054 46.6025 75.6081 46.6078 75.6114 46.6111C75.6127 46.6144 75.6107 46.6151 75.6068 46.6138ZM118.003 34.6328C120.485 32.8243 120.004 31.3448 116.931 31.3448H92.259C89.1873 31.3448 85.898 28.9551 84.9486 26.034L77.3237 2.56828C76.3743 -0.353489 74.8219 -0.353489 73.8732 2.56828L66.2477 26.034C65.2989 28.9551 62.0083 31.3448 58.9373 31.3448H34.2641C31.1924 31.3448 30.7114 32.8243 33.194 34.6321L53.1621 49.17C55.6453 50.9785 56.9012 54.8477 55.9538 57.7694L48.325 81.2842C47.3769 84.206 48.6335 85.1182 51.118 83.313L71.0808 68.8017C73.566 66.9958 77.6315 66.9945 80.1174 68.799L100.076 83.2885C102.562 85.0937 103.82 84.1801 102.871 81.2583L95.2444 57.7734C94.2957 54.8523 95.5516 50.9825 98.0342 49.1746L118.003 34.6328Z" fill="url(#paint0_radial_1_7634)"/>
<path d="M75.4437 46.8235C75.439 46.8215 75.433 46.8201 75.433 46.8201H75.4284H75.4264C75.4264 46.8201 75.4297 46.8168 75.4317 46.8142C75.4337 46.8122 75.4344 46.8082 75.4344 46.8062C75.4344 46.8042 75.4364 46.8042 75.4364 46.8042C75.4364 46.8042 75.4384 46.8082 75.4404 46.8109C75.4423 46.8128 75.445 46.8175 75.4476 46.8208C75.449 46.8241 75.447 46.8248 75.4437 46.8235ZM48.6641 80.8544C47.7333 83.7224 48.9673 84.618 51.4061 82.846L71.0006 68.6021C73.4401 66.8294 77.43 66.828 79.8701 68.5994L99.4607 82.8208C101.901 84.5928 103.135 83.6959 102.203 80.8285L94.7443 57.8577C93.8188 55.0076 95.0362 51.2094 97.4591 49.4454L116.922 35.2014C119.342 33.432 118.875 31.9771 115.881 31.9632C115.891 31.9293 97.5427 31.8803 97.5533 31.873L91.8212 31.8703C88.8238 31.8703 85.5644 29.5343 84.6389 26.6842L77.0684 3.77979C76.1423 0.929671 74.5958 0.926355 73.6703 3.77714L66.0992 26.659C65.51 28.4735 63.9616 30.075 62.165 31.0012C61.1301 31.5293 60.0082 31.8404 58.9188 31.8444C58.9182 31.8477 55.8411 31.8524 55.8484 31.8577L34.9496 31.9254C31.9528 31.9254 31.503 33.3962 33.9312 35.151C33.9458 35.1616 46.9737 44.664 46.9677 44.6819L53.4203 49.4115C55.8425 51.1763 57.0579 54.9824 56.1331 57.8332L48.6641 80.8544Z" fill="url(#paint1_radial_1_7634)"/>
<path d="M75.2794 47.0332C75.2747 47.0319 75.2688 47.0299 75.2688 47.0299H75.2648H75.2628C75.2628 47.0299 75.2655 47.0266 75.2674 47.0239C75.2688 47.022 75.2701 47.0166 75.2701 47.0166C75.2701 47.0146 75.2721 47.0147 75.2721 47.0147C75.2721 47.0147 75.2741 47.0193 75.2761 47.0213C75.2781 47.0233 75.2807 47.0279 75.284 47.0312C75.2854 47.0339 75.284 47.0345 75.2794 47.0332ZM49.004 80.4252C48.0911 83.2395 49.3012 84.1179 51.6943 82.3784L70.9206 68.4031C73.3143 66.6643 77.2299 66.6629 79.6236 68.4005L98.8459 82.3552C101.24 84.0934 102.452 83.2137 101.538 80.4007L94.245 57.9434C93.3434 55.1643 94.523 51.4391 96.8842 49.7188L115.841 35.7701C118.199 34.0398 117.745 32.6088 114.831 32.5803C114.851 32.5119 96.9837 32.4144 97.0042 32.3998L91.3836 32.3945C88.4618 32.3945 85.2316 30.113 84.3286 27.3338L76.8126 4.98935C75.9103 2.21022 74.3698 2.20491 73.4675 4.98404L65.9508 27.2828C65.3763 29.0521 63.8365 30.6165 62.081 31.5135C61.064 32.0329 59.9627 32.3335 58.9005 32.3415C58.8992 32.3488 55.9024 32.3574 55.9164 32.368L35.6345 32.5033C32.7127 32.5033 32.3067 33.9483 34.6679 35.6679C34.6971 35.6892 47.4072 44.9779 47.3959 45.0131L53.6779 49.6518C56.0398 51.3721 57.2147 55.1152 56.3131 57.895L49.004 80.4252Z" fill="url(#paint2_radial_1_7634)"/>
<path d="M75.1163 47.2432C75.1117 47.2419 75.1063 47.2399 75.1063 47.2399H75.1024H75.0997C75.0997 47.2399 75.103 47.2366 75.105 47.2339C75.107 47.2319 75.1077 47.2266 75.1077 47.2266L75.1097 47.2246C75.1097 47.2246 75.111 47.2293 75.113 47.2313C75.115 47.2333 75.1183 47.2373 75.1209 47.2406C75.1236 47.2439 75.121 47.2446 75.1163 47.2432ZM49.3445 79.995C48.4482 82.7556 49.6358 83.6174 51.983 81.9117L70.8411 68.2038C73.1884 66.4981 77.029 66.4968 79.3776 68.2011L98.2311 81.8891C100.58 83.5935 101.768 82.7304 100.871 79.9711L93.7456 58.0287C92.8665 55.3212 94.0083 51.667 96.3091 49.9912L114.76 36.3383C117.055 34.6472 116.616 33.2408 113.78 33.1983C113.809 33.0961 96.4232 32.9495 96.4544 32.9263L90.9452 32.9183C88.0984 32.9183 84.8987 30.6905 84.0189 27.983L76.5566 6.20046C75.6769 3.49232 74.1437 3.4837 73.2647 6.19184L65.8017 27.9061C65.2417 29.6303 63.7099 31.1556 61.9976 32.0254C60.9978 32.5335 59.9177 32.8274 58.8814 32.8394C58.8794 32.85 55.9629 32.8639 55.9835 32.8792L36.3199 33.0822C33.4725 33.0822 33.1043 34.5099 35.4057 36.1858C35.4502 36.2176 47.8418 45.2927 47.8246 45.3445L53.9368 49.8923C56.2383 51.5688 57.3714 55.2489 56.4937 57.957L49.3445 79.995Z" fill="url(#paint3_radial_1_7634)"/>
<path d="M74.9526 47.4522C74.9487 47.4509 74.9434 47.4489 74.9434 47.4489L74.9387 47.4496L74.9374 47.4489C74.9374 47.4489 74.9394 47.4456 74.942 47.4429C74.9434 47.4403 74.9447 47.4356 74.9447 47.4356L74.946 47.4343C74.946 47.4343 74.948 47.4376 74.95 47.4403C74.9513 47.4423 74.9546 47.4463 74.9573 47.4496C74.9593 47.4529 74.9573 47.4536 74.9526 47.4522ZM49.6844 79.5652C48.806 82.2713 49.9703 83.1165 52.2711 81.444L70.7611 68.0035C73.0632 66.3309 76.8282 66.3296 79.131 68.0008L97.6169 81.4208C99.919 83.0933 101.084 82.2468 100.204 79.5413L93.2462 58.113C92.3904 55.4765 93.4937 51.8946 95.7348 50.2625L113.679 36.9063C115.913 35.2537 115.488 33.8724 112.73 33.8153C112.77 33.6786 95.8641 33.4836 95.9059 33.4531L90.5082 33.4425C87.7364 33.4425 84.5665 31.2684 83.7093 28.6326L76.3021 7.40993C75.4456 4.77344 73.9183 4.76283 73.0625 7.39932L65.6539 28.5297C65.1093 30.2082 63.5834 31.6936 61.9148 32.5375C60.9323 33.0338 59.8741 33.3211 58.8637 33.337C58.861 33.3509 56.0248 33.3695 56.0527 33.3901L37.0061 33.6607C34.2343 33.6607 33.9033 35.0705 36.1437 36.7019C36.2027 36.745 48.2766 45.6059 48.2534 45.6749L54.1957 50.1312C56.4368 51.7632 57.5288 55.381 56.6743 58.0181L49.6844 79.5652Z" fill="url(#paint4_radial_1_7634)"/>
<path d="M74.7902 47.6623C74.7855 47.661 74.7802 47.659 74.7802 47.659H74.7762H74.7742C74.7742 47.659 74.7769 47.6557 74.7789 47.653C74.7802 47.6504 74.7815 47.6464 74.7815 47.6464C74.7815 47.6444 74.7829 47.6444 74.7829 47.6444C74.7829 47.6444 74.7855 47.6484 74.7868 47.6504C74.7888 47.653 74.7915 47.657 74.7941 47.6603C74.7968 47.6623 74.7941 47.6636 74.7902 47.6623ZM50.0241 79.1344C49.1636 81.7868 50.3041 82.6154 52.5598 80.976L70.6808 67.8036C72.9365 66.1642 76.6272 66.1629 78.8842 67.8009L97.002 80.9535C99.2583 82.5922 100.4 81.7629 99.5383 79.1112L92.7474 58.1977C91.9141 55.6328 92.9796 52.1219 95.1603 50.5343L112.599 37.4746C114.771 35.8611 114.358 34.5037 111.68 34.4328C111.73 34.2622 95.3042 34.0181 95.3573 33.9803L90.0717 33.9664C87.3742 33.9664 84.2335 31.846 83.4002 29.2812L76.0467 8.61982C75.2134 6.05432 73.6928 6.04105 72.8596 8.60589L65.5054 29.1525C64.9753 30.7859 63.4574 32.2321 61.8313 33.0488C60.8653 33.5338 59.829 33.8138 58.8458 33.8337C58.8425 33.8509 56.0859 33.8742 56.1204 33.9L37.6922 34.2384C34.9947 34.2384 34.7014 35.6316 36.8815 37.2185C36.9551 37.2723 48.7105 45.9188 48.6827 46.0057L54.4545 50.3711C56.6352 51.9594 57.6868 55.5147 56.8548 58.0802L50.0241 79.1344Z" fill="url(#paint5_radial_1_7634)"/>
<path d="M74.6265 47.8712C74.6225 47.8698 74.6172 47.8679 74.6172 47.8679H74.6132H74.6119C74.6119 47.8679 74.6145 47.8652 74.6165 47.8619C74.6179 47.8599 74.6185 47.8566 74.6185 47.8546L74.6205 47.8533C74.6205 47.8533 74.6225 47.8572 74.6238 47.8592C74.6258 47.8612 74.6285 47.8652 74.6311 47.8685C74.6331 47.8718 74.6311 47.8725 74.6265 47.8712ZM50.3647 78.7043C49.5214 81.303 50.6393 82.1144 52.8486 80.5082L70.6021 67.6037C72.812 65.9982 76.4277 65.9969 78.6383 67.6011L96.3878 80.487C98.5984 82.0918 99.717 81.2798 98.8731 78.6811L92.2486 58.2818C91.4386 55.7879 92.4669 52.3494 94.5859 50.8056L111.519 38.0417C113.628 36.468 113.229 35.1345 110.63 35.0496C110.689 34.8446 94.7458 34.552 94.8075 34.5063L89.634 34.4903C87.0115 34.4903 83.9007 32.4238 83.0906 29.9306L75.7915 9.8298C74.9814 7.33594 73.4675 7.31935 72.6574 9.81386L65.357 29.7766C64.8421 31.3649 63.3302 32.7707 61.7486 33.5615C60.7998 34.0359 59.7848 34.3079 58.8281 34.3318C58.8241 34.353 56.1478 34.3809 56.1896 34.4114L38.3784 34.8168C35.7565 34.8168 35.5004 36.1927 37.6194 37.7359C37.7083 37.8002 49.1459 46.2325 49.1114 46.3366L54.7135 50.6105C56.8332 52.1543 57.8442 55.6473 57.0355 58.1418L50.3647 78.7043Z" fill="url(#paint6_radial_1_7634)"/>
<path d="M74.463 48.0821C74.459 48.0807 74.4544 48.0794 74.4544 48.0794H74.4504H74.4484C74.4484 48.0794 74.451 48.0768 74.453 48.0741C74.4543 48.0714 74.455 48.0675 74.455 48.0675L74.457 48.0661C74.457 48.0661 74.459 48.0701 74.4603 48.0721C74.4623 48.0741 74.465 48.0781 74.4676 48.0814C74.4703 48.0827 74.4676 48.0834 74.463 48.0821ZM50.704 78.275C49.8781 80.8199 50.9727 81.6141 53.1368 80.0417L70.5222 67.4046C72.6863 65.8323 76.2271 65.8309 78.3918 67.402L95.7725 80.0205C97.9373 81.5922 99.0326 80.7967 98.206 78.2531L91.7488 58.3673C90.9619 55.9451 91.9525 52.5775 94.0111 51.0788L110.438 38.6115C112.485 37.0763 112.1 35.7674 109.581 35.6679C109.649 35.429 94.1862 35.0874 94.2586 35.0343L89.1965 35.0157C86.6496 35.0157 83.5686 33.0035 82.7811 30.5807L75.5364 11.0412C74.7496 8.61829 73.2416 8.59903 72.4548 11.0219L65.2094 30.4009C64.7085 31.9433 63.2051 33.31 61.6653 34.0743C60.7332 34.5374 59.74 34.8021 58.8099 34.8293C58.8052 34.8538 56.2086 34.8863 56.2577 34.9215L39.0647 35.3952C36.5178 35.3952 36.2989 36.7533 38.3575 38.2526C38.461 38.3276 49.5802 46.5462 49.541 46.6683L54.9726 50.8512C57.0312 52.3513 58.0018 55.7799 57.2157 58.2028L50.704 78.275Z" fill="url(#paint7_radial_1_7634)"/>
<path d="M74.2997 48.2912C74.2957 48.2899 74.2904 48.2879 74.2904 48.2879H74.287H74.2851C74.2851 48.2879 74.287 48.2859 74.2897 48.2826C74.291 48.2806 74.2917 48.2759 74.2917 48.2759L74.2937 48.2746C74.2937 48.2746 74.295 48.2786 74.297 48.2806C74.297 48.2806 74.301 48.2865 74.3036 48.2892C74.3056 48.2918 74.3036 48.2925 74.2997 48.2912ZM51.0436 77.8452C50.2355 80.3358 51.307 81.1133 53.4246 79.5748L70.4411 67.2051C72.5595 65.6659 76.0252 65.6646 78.1442 67.2024L95.1574 79.5529C97.2757 81.0914 98.3478 80.3132 97.5391 77.8227L91.2491 58.4517C90.4861 56.1005 91.4375 52.8052 93.4358 51.3503L109.357 39.1789C111.341 37.6829 110.971 36.3984 108.53 36.285C108.609 36.0123 93.6262 35.6216 93.7098 35.5612L88.7592 35.54C86.2866 35.54 83.2355 33.5808 82.4718 31.2296L75.2815 12.2507C74.5172 9.89951 73.0166 9.87696 72.2529 12.2288L65.0613 31.0246C64.5757 32.522 63.079 33.8475 61.5829 34.5866C60.6681 35.0384 59.6968 35.2958 58.7925 35.3276C58.7872 35.3555 56.2708 35.3927 56.3265 35.4332L39.7506 35.9739C37.278 35.9739 37.0968 37.3146 39.0958 38.7696C39.2139 38.8551 50.0153 46.8602 49.9701 46.9988L55.2318 51.0909C57.2308 52.5465 58.1596 55.9127 57.3973 58.2646L51.0436 77.8452Z" fill="url(#paint8_radial_1_7634)"/>
<path d="M74.1367 48.5019C74.1334 48.5006 74.1281 48.4993 74.1281 48.4993H74.1247H74.1228C74.1228 48.4993 74.1247 48.496 74.1267 48.4933C74.1281 48.4913 74.1294 48.4867 74.1294 48.4867L74.1307 48.4853C74.1307 48.4853 74.1327 48.4887 74.134 48.4906C74.1354 48.4926 74.138 48.4966 74.1407 48.4999C74.1426 48.5026 74.1407 48.5033 74.1367 48.5019ZM51.3842 77.4158C50.5934 79.8526 51.6422 80.6135 53.7141 79.1082L70.3624 67.0065C72.435 65.4998 75.8258 65.4998 77.8984 67.0038L94.5433 79.0876C96.6165 80.5929 97.6654 79.8307 96.8739 77.3945L90.7511 58.5377C90.0107 56.2575 90.9249 53.0345 92.8621 51.6234L108.278 39.7486C110.2 38.291 109.842 37.0311 107.481 36.9031C107.57 36.5959 93.0678 36.1567 93.162 36.0884L88.3229 36.0638C85.9253 36.0638 82.904 34.1591 82.1629 31.8796L75.027 13.4613C74.2859 11.181 72.7919 11.1565 72.0515 13.4367L64.9143 31.6487C64.4432 33.1009 62.9525 34.3873 61.5009 35.0992C60.6026 35.5397 59.6526 35.7905 58.7755 35.825C58.7695 35.8562 56.3327 35.898 56.3958 35.9438L40.4375 36.5521C38.0405 36.5521 37.8965 37.8757 39.8344 39.2868C39.9671 39.3837 50.4507 47.1744 50.3996 47.3303L55.4915 51.3308C57.4294 52.7426 58.3177 56.0458 57.578 58.3267L51.3842 77.4158Z" fill="url(#paint9_radial_1_7634)"/>
<path d="M73.973 48.7126C73.9697 48.7112 73.9644 48.7099 73.9644 48.7099H73.9611H73.9598C73.9598 48.7099 73.9618 48.7073 73.9638 48.7046C73.9651 48.7026 73.9657 48.698 73.9657 48.698L73.9677 48.6966C73.9677 48.6966 73.969 48.7 73.971 48.7026C73.971 48.7026 73.9744 48.7079 73.977 48.7112C73.9783 48.7132 73.977 48.7139 73.973 48.7126ZM51.7241 76.9868C50.9512 79.3699 51.9755 80.1136 54.0023 78.6408L70.2823 66.8071C72.3098 65.3343 75.625 65.3336 77.6518 66.8045L93.9278 78.6209C95.9553 80.0931 96.981 79.348 96.2074 76.9656L90.2504 58.6223C89.5333 56.4137 90.4096 53.2624 92.2858 51.8951L107.196 40.3168C109.056 38.8984 108.713 37.6631 106.43 37.5211C106.528 37.1794 92.5081 36.6918 92.6116 36.6161L87.8846 36.589C85.5619 36.589 82.5705 34.738 81.8527 32.5294L74.7705 14.673C74.0527 12.4638 72.5652 12.4366 71.8481 14.6458L64.7652 32.2733C64.3088 33.6798 62.8247 34.9264 61.4162 35.6124C60.5352 36.0416 59.607 36.2844 58.7558 36.3236C58.7492 36.3581 56.3933 36.4052 56.463 36.4556L41.1224 37.1316C38.8004 37.1316 38.6935 38.4379 40.5711 39.8046C40.719 39.9121 50.8842 47.4885 50.8278 47.6624L55.7491 51.572C57.6267 52.9393 58.4739 56.1802 57.7574 58.3894L51.7241 76.9868Z" fill="url(#paint10_radial_1_7634)"/>
<path d="M73.8106 48.9206C73.8073 48.9193 73.8027 48.9173 73.8027 48.9173L73.7987 48.918L73.7973 48.9173C73.7973 48.9173 73.7993 48.9147 73.8013 48.912C73.8027 48.91 73.8033 48.906 73.8033 48.906L73.8047 48.9041C73.8047 48.9041 73.8067 48.908 73.808 48.91C73.808 48.91 73.8119 48.9153 73.8146 48.918C73.8153 48.9206 73.8146 48.922 73.8106 48.9206ZM52.0645 76.5554C51.3089 78.8847 52.3107 79.6118 54.2904 78.1728L70.2022 66.6065C72.1826 65.1668 75.4234 65.1655 77.4051 66.6038L93.3136 78.1529C95.2947 79.5913 96.2978 78.8628 95.5408 76.5348L89.751 58.7056C89.057 56.5681 89.8956 53.4884 91.7121 52.1655L106.115 40.8831C107.913 39.5038 107.583 38.2931 105.38 38.1365C105.488 37.761 91.9483 37.2243 92.0624 37.1407L87.4475 37.1108C85.1998 37.1108 82.2376 35.3143 81.5436 33.1767L74.5159 15.8809C73.8212 13.7427 72.3398 13.7128 71.6458 15.851L64.6174 32.8947C64.1756 34.2561 62.6988 35.4622 61.3341 36.1223C60.4696 36.5403 59.5627 36.7765 58.7387 36.8189C58.7314 36.8574 56.4552 36.9085 56.5315 36.9642L41.8092 37.7079C39.5615 37.7079 39.4924 38.997 41.3096 40.3199C41.4721 40.438 51.3189 47.8001 51.2572 47.9912L56.0087 51.8092C57.8258 53.1328 58.6319 56.3106 57.9386 58.4489L52.0645 76.5554Z" fill="url(#paint11_radial_1_7634)"/>
<path d="M73.6459 49.1305C73.6419 49.1298 73.6372 49.1278 73.6372 49.1278H73.6339H73.6326C73.6326 49.1278 73.6346 49.1245 73.6366 49.1225C73.6379 49.1205 73.6386 49.1166 73.6386 49.1166C73.6386 49.1146 73.6399 49.1145 73.6399 49.1145C73.6399 49.1145 73.6419 49.1179 73.6432 49.1199C73.6432 49.1199 73.6479 49.1252 73.6499 49.1278C73.6519 49.1305 73.6499 49.1318 73.6459 49.1305ZM52.404 76.1257C51.6656 78.4006 52.6442 79.1104 54.5788 77.7053L70.1217 66.407C72.0569 65.0005 75.2229 64.9998 77.1574 66.4043L92.6978 77.6861C94.6337 79.0912 95.6129 78.38 94.8732 76.1058L89.2505 58.7908C88.5791 56.7242 89.3799 53.7168 91.136 52.4377L105.033 41.4512C106.769 40.1111 106.453 38.9249 104.328 38.7543C104.446 38.3443 91.3868 37.7592 91.5122 37.6676L87.0088 37.6358C84.836 37.6358 81.9037 35.893 81.2323 33.8264L74.2589 17.0912C73.5868 15.0246 72.1127 14.9921 71.4413 17.0587L64.4673 33.5185C64.0393 34.8341 62.5698 36.0004 61.2483 36.6347C60.401 37.0414 59.5167 37.2702 58.7179 37.3167C58.7093 37.3585 56.5133 37.4149 56.5976 37.4753L42.4923 38.2866C40.3202 38.2866 40.2884 39.5584 42.0445 40.8369C42.2216 40.9656 51.7505 48.1141 51.6828 48.3231L56.2645 52.0503C58.0206 53.3294 58.7863 56.4448 58.1169 58.5114L52.404 76.1257Z" fill="url(#paint12_radial_1_7634)"/>
<path d="M73.4833 49.3403C73.48 49.3396 73.4753 49.3377 73.4753 49.3377H73.472H73.4707C73.4707 49.3377 73.472 49.335 73.474 49.3324C73.4753 49.3304 73.476 49.3264 73.476 49.3264L73.4773 49.3251L73.4806 49.3297C73.4806 49.3297 73.4839 49.335 73.4873 49.3377C73.4886 49.3403 73.4872 49.3416 73.4833 49.3403ZM52.7443 75.6953C52.0245 77.9171 52.9791 78.6104 54.8679 77.2371L70.0434 66.2068C71.9322 64.8335 75.0231 64.8329 76.9119 66.2042L92.084 77.2192C93.9735 78.5905 94.9295 77.8966 94.2077 75.676L88.7522 58.8759C88.1041 56.8809 88.8664 53.9446 90.5628 52.7099L103.954 42.0206C105.627 40.7196 105.325 39.5573 103.279 39.3729C103.407 38.929 90.8288 38.2948 90.9641 38.1959L86.5715 38.1614C84.4737 38.1614 81.5719 36.4723 80.923 34.4774L74.0041 18.3028C73.3552 16.3079 71.8877 16.272 71.2395 18.267L64.3192 34.1437C63.9066 35.4141 62.443 36.54 61.1659 37.1484C60.336 37.5444 59.4722 37.7654 58.7006 37.8158C58.692 37.8609 56.5756 37.9219 56.6665 37.9876L43.1795 38.8667C41.0824 38.8667 41.0884 40.1205 42.7835 41.3559C42.9752 41.4952 52.187 48.4301 52.1134 48.6557L56.5246 52.2919C58.2203 53.5273 58.9447 56.5797 58.2979 58.5753L52.7443 75.6953Z" fill="url(#paint13_radial_1_7634)"/>
<path d="M73.3198 49.5507C73.3165 49.5494 73.3118 49.548 73.3118 49.548H73.3092H73.3079C73.3079 49.548 73.3099 49.546 73.3112 49.5427L73.3132 49.5374L73.3145 49.5361C73.3145 49.5361 73.3158 49.5394 73.3178 49.5414C73.3178 49.5414 73.3211 49.5467 73.3231 49.5493C73.3251 49.5507 73.3231 49.5513 73.3198 49.5507ZM53.0837 75.2661C52.3805 77.4335 53.3133 78.1102 55.1556 76.7708L69.9622 66.0079C71.8052 64.6677 74.8212 64.6671 76.6655 66.0052L91.4694 76.7522C93.3131 78.091 94.2459 77.4136 93.542 75.2469L88.2537 58.9602C87.6288 57.0362 88.3526 54.1722 89.9873 52.9813L102.873 42.5879C104.485 41.3261 104.195 40.1883 102.229 39.9892C102.366 39.5116 90.2699 38.8283 90.4145 38.7221L86.1347 38.6843C84.1112 38.6843 81.2392 37.0496 80.6136 35.1249L73.7491 19.5117C73.1241 17.5884 71.6619 17.5499 71.0376 19.4732L64.1711 34.766C63.773 35.9914 62.3167 37.0761 61.0834 37.6593C60.2694 38.0447 59.4288 38.2577 58.6838 38.3121C58.6738 38.3612 56.6377 38.4262 56.7359 38.4972L43.8666 39.4439C41.8438 39.4439 41.8876 40.6805 43.5223 41.8714C43.7286 42.0214 52.622 48.7413 52.5437 48.9854L56.7844 52.5302C58.4197 53.721 59.1037 56.7111 58.4794 58.6358L53.0837 75.2661Z" fill="url(#paint14_radial_1_7634)"/>
<path d="M73.1566 49.7605C73.1533 49.7592 73.1487 49.7578 73.1487 49.7578H73.146H73.1447C73.1447 49.7578 73.146 49.7552 73.148 49.7525L73.15 49.7472C73.15 49.7452 73.1513 49.7452 73.1513 49.7452C73.1513 49.7452 73.1526 49.7479 73.154 49.7499C73.154 49.7499 73.1573 49.7545 73.1599 49.7572C73.1619 49.7605 73.1599 49.7612 73.1566 49.7605ZM53.4241 74.8364C52.7387 76.9501 53.6476 77.6095 55.4442 76.3039L69.8832 65.809C71.6811 64.5027 74.6215 64.5014 76.4201 65.8063L90.8551 76.2866C92.6523 77.5916 93.5626 76.9315 92.8766 74.8185L87.7542 59.0459C87.1531 57.193 87.8391 54.4006 89.4134 53.2542L101.792 43.1573C103.342 41.934 103.068 40.8214 101.179 40.6077C101.327 40.0962 89.7107 39.3638 89.8659 39.2497L85.6975 39.2099C83.7504 39.2099 80.9069 37.6289 80.3045 35.7766L73.4943 20.7239C72.8926 18.8716 71.4363 18.8305 70.8346 20.6828L64.0231 35.3918C63.6403 36.5714 62.19 37.6163 61.0005 38.1736C60.2037 38.5471 59.3844 38.7534 58.6652 38.8118C58.6553 38.8642 56.6988 38.9339 56.8036 39.0102L44.5519 40.0246C42.6041 40.0246 42.685 41.244 44.26 42.3911C44.4816 42.5516 53.0565 49.0586 52.9716 49.3187L57.0431 52.7725C58.6181 53.9196 59.261 56.8467 58.6599 58.6996L53.4241 74.8364Z" fill="url(#paint15_radial_1_7634)"/>
<path d="M72.993 49.9694C72.9896 49.9681 72.9856 49.9667 72.9856 49.9667H72.983H72.9817C72.9817 49.9667 72.983 49.9641 72.985 49.9621C72.9856 49.9601 72.987 49.9568 72.987 49.9568L72.9883 49.9554C72.9883 49.9554 72.9896 49.9581 72.9909 49.9601C72.9909 49.9601 72.9943 49.9647 72.9963 49.9674C72.9982 49.97 72.9963 49.9707 72.993 49.9694ZM53.7639 74.4057C53.0959 76.4657 53.9816 77.1079 55.7324 75.8361L69.8031 65.6079C71.5546 64.3348 74.42 64.3341 76.1721 65.6059L90.2389 75.8181C91.9911 77.0906 92.8781 76.4464 92.2094 74.3884L87.2548 59.1301C86.6763 57.3488 87.3238 54.6287 88.8384 53.5261L100.711 43.7258C102.198 42.5422 101.937 41.4529 100.129 41.2253C100.286 40.6793 89.1502 39.8984 89.3168 39.777L85.2599 39.7339C83.387 39.7339 80.574 38.2067 79.9948 36.4254L73.2384 21.9333C72.6599 20.152 71.211 20.1082 70.6324 21.8895L63.8754 36.0147C63.5065 37.1485 62.0628 38.153 60.9171 38.685C60.1369 39.0473 59.3394 39.2463 58.6468 39.3086C58.6362 39.3644 56.76 39.4387 56.8721 39.5203L45.2375 40.6023C43.3646 40.6023 43.4834 41.8045 44.9973 42.9071C45.2335 43.0789 53.4899 49.371 53.3997 49.649L57.3007 53.0112C58.8147 54.1145 59.4171 56.9786 58.8392 58.7599L53.7639 74.4057Z" fill="url(#paint16_radial_1_7634)"/>
<path d="M72.8296 50.1798C72.8269 50.1791 72.823 50.1778 72.823 50.1778H72.8196H72.8183C72.8183 50.1778 72.821 50.1751 72.8223 50.1724L72.8236 50.1671L72.8249 50.1658C72.8249 50.1658 72.8263 50.1685 72.8283 50.1705C72.8283 50.1705 72.8309 50.1751 72.8336 50.1784C72.8349 50.1804 72.8336 50.1811 72.8296 50.1798ZM54.1041 73.9765C53.4533 75.9814 54.3158 76.6083 56.0214 75.3691L69.7234 65.4096C71.4291 64.1696 74.2195 64.1689 75.9258 65.4069L89.6245 75.3518C91.3308 76.5904 92.1939 75.9642 91.5424 73.9586L86.7551 59.2144C86.1998 57.5048 86.8102 54.8563 88.2631 53.7975L99.6304 44.2931C101.055 43.148 100.808 42.0832 99.0784 41.8417C99.2456 41.2612 88.5908 40.4319 88.7679 40.3032L84.8225 40.2581C83.0246 40.2581 80.2408 38.7846 79.6855 37.0743L72.9835 23.1441C72.4275 21.4338 70.9846 21.3873 70.4299 23.0977L63.7273 36.639C63.3737 37.7277 61.936 38.691 60.8347 39.1979C60.0711 39.5495 59.2955 39.7413 58.6294 39.8069C58.6181 39.866 56.8216 39.9449 56.941 40.0312L45.9246 41.1809C44.1267 41.1809 44.2826 42.3658 45.7362 43.424C45.987 43.6064 53.9263 49.6855 53.8301 49.9807L57.5613 53.2521C59.0142 54.311 59.5761 57.112 59.0215 58.823L54.1041 73.9765Z" fill="url(#paint17_radial_1_7634)"/>
<path d="M72.6675 50.3901C72.6642 50.3888 72.6602 50.3874 72.6602 50.3874H72.6576H72.6562C72.6562 50.3874 72.6576 50.3855 72.6596 50.3828C72.6609 50.3808 72.6609 50.3775 72.6609 50.3775L72.6622 50.3768C72.6622 50.3768 72.6642 50.3795 72.6655 50.3815C72.6655 50.3815 72.6682 50.3855 72.6708 50.3888C72.6708 50.3888 72.6709 50.3908 72.6675 50.3901ZM54.445 73.5467C53.8114 75.4978 54.6513 76.1069 56.3099 74.9014L69.6443 65.2099C71.3042 64.0038 74.0203 64.0031 75.6802 65.2073L89.0113 74.8855C90.6712 76.0903 91.5118 75.4812 90.8775 73.5301L86.2567 59.3001C85.7246 57.6614 86.2971 55.0852 87.6897 54.0702L98.5508 44.8624C99.9141 43.7564 99.68 42.7161 98.03 42.4607C98.2071 41.8464 88.0334 40.968 88.2198 40.8313L84.3864 40.7829C82.6628 40.7829 79.9096 39.3638 79.3775 37.7245L72.7292 24.3549C72.1965 22.7156 70.7602 22.6665 70.2281 24.3058L63.5791 37.2634C63.2408 38.307 61.8097 39.2291 60.7516 39.7108C60.0045 40.0511 59.2509 40.2349 58.6113 40.3052C58.5987 40.3683 56.8831 40.4519 57.0091 40.5434L46.6098 41.7608C44.8868 41.7608 45.0806 42.9278 46.4731 43.9428C46.7385 44.1359 54.3594 50.0007 54.2579 50.3131L57.8185 53.4937C59.2117 54.508 59.7319 57.2467 59.1998 58.8861L54.445 73.5467Z" fill="url(#paint18_radial_1_7634)"/>
<path d="M72.5033 50.5995C72.5007 50.5988 72.4967 50.5968 72.4967 50.5968L72.494 50.5975L72.4927 50.5968C72.4927 50.5968 72.494 50.5942 72.496 50.5928C72.4974 50.5909 72.498 50.5875 72.498 50.5875L72.4987 50.5862C72.4987 50.5862 72.5007 50.5889 72.502 50.5909C72.502 50.5909 72.5047 50.5948 72.5067 50.5975C72.508 50.5995 72.5067 50.6001 72.5033 50.5995ZM54.7843 73.1165C54.1686 75.0139 54.9847 75.607 56.5981 74.4341L69.563 65.01C71.1771 63.8363 73.8183 63.8357 75.4324 65.0073L88.3946 74.4181C90.0094 75.5904 90.8261 74.9973 90.2098 73.1006L85.7561 59.3847C85.2466 57.817 85.7813 55.3119 87.1135 54.3413L97.4684 45.43C98.7687 44.3632 98.5491 43.3468 96.9781 43.0774C97.1639 42.4286 87.4711 41.5018 87.6688 41.3578L83.9476 41.3068C82.2996 41.3068 79.5749 39.9414 79.066 38.3737L72.4728 25.5648C71.9633 23.9971 70.5336 23.9453 70.0248 25.513L63.4302 37.8867C63.1064 38.8845 61.6814 39.7656 60.6677 40.2227C59.9379 40.5524 59.2061 40.7289 58.5931 40.8025C58.5798 40.8689 56.9445 40.9571 57.0765 41.054L47.2954 42.3384C45.6475 42.3384 45.879 43.4881 47.2105 44.4587C47.4912 44.6624 54.7936 50.3129 54.6868 50.6426L58.0776 53.7316C59.4098 54.7022 59.8888 57.3785 59.3806 58.9462L54.7843 73.1165Z" fill="url(#paint19_radial_1_7634)"/>
<path d="M72.34 50.8091C72.3367 50.8085 72.3334 50.8071 72.3334 50.8071H72.3307C72.3307 50.8071 72.3314 50.8045 72.3327 50.8025C72.334 50.8011 72.3341 50.7978 72.3341 50.7978C72.3341 50.7965 72.3354 50.7965 72.3354 50.7965C72.3354 50.7965 72.3367 50.7992 72.338 50.8012C72.3394 50.8025 72.3407 50.8051 72.3433 50.8078C72.3447 50.8091 72.3433 50.8104 72.34 50.8091ZM55.1245 72.6872C54.5261 74.5309 55.3196 75.1068 56.8866 73.9677L69.4839 64.8109C71.0516 63.6711 73.6178 63.6705 75.1862 64.8089L87.7802 73.9524C89.3485 75.0908 90.1426 74.5143 89.5436 72.6713L85.2571 59.4703C84.7715 57.9735 85.2677 55.5407 86.5395 54.6146L96.3889 45.9999C97.6269 44.9716 97.4212 43.9804 95.9291 43.6964C96.1248 43.0137 86.9124 42.0378 87.1207 41.8859L83.5109 41.8322C81.9379 41.8322 79.2437 40.5199 78.7574 39.0238L72.2186 26.7762C71.733 25.2795 70.3092 25.2251 69.8236 26.7211L63.2841 38.511C62.975 39.4637 61.5565 40.3036 60.5866 40.7362C59.8727 41.0546 59.1629 41.2238 58.5771 41.3014C58.5631 41.3711 57.0074 41.4646 57.1474 41.5655L47.9833 42.9182C46.4103 42.9182 46.679 44.0507 47.9508 44.9775C48.2461 45.1918 55.2307 50.6287 55.1179 50.9756L58.3389 53.9737C59.6107 54.8999 60.0492 57.5131 59.5636 59.0098L55.1245 72.6872Z" fill="url(#paint20_radial_1_7634)"/>
<path d="M72.177 51.0189C72.1743 51.0182 72.1703 51.0169 72.1703 51.0169H72.1684H72.167C72.167 51.0169 72.1684 51.0143 72.1697 51.0123L72.1717 51.0076L72.1724 51.0063L72.1757 51.0103C72.1757 51.0103 72.1783 51.0143 72.1803 51.0169C72.1816 51.0189 72.1803 51.0196 72.177 51.0189ZM55.4644 72.2568C54.8839 74.0467 55.6535 74.6054 57.1754 73.4994L69.4045 64.6107C70.9271 63.5047 73.4176 63.5034 74.9402 64.6087L87.166 73.4848C88.6892 74.5908 89.4595 74.0308 88.8783 72.2415L84.7584 59.5547C84.296 58.1296 84.7544 55.7678 85.9652 54.8861L95.3083 46.5672C96.4846 45.5781 96.2922 44.6114 94.8791 44.3136C95.0854 43.597 86.3533 42.572 86.5722 42.4128L83.0739 42.3564C81.5752 42.3564 78.9109 41.0986 78.4484 39.6735L71.9634 27.9864C71.501 26.5614 70.0845 26.5043 69.6214 27.9294L63.1363 39.1354C62.8418 40.043 61.4287 40.8411 60.5038 41.2492C59.8066 41.5563 59.1186 41.7182 58.5586 41.7998C58.5441 41.8728 57.0686 41.971 57.2159 42.0771L48.6695 43.4975C47.1714 43.4975 47.4773 44.6134 48.6887 45.4951C48.9986 45.7207 55.6654 50.9433 55.5467 51.3082L58.5971 54.2147C59.8086 55.097 60.206 57.6479 59.7436 59.073L55.4644 72.2568Z" fill="url(#paint21_radial_1_7634)"/>
<path d="M72.0135 51.2286C72.0108 51.228 72.0075 51.2266 72.0075 51.2266H72.0049H72.0036C72.0036 51.2266 72.0049 51.224 72.0069 51.2227L72.0082 51.218L72.0089 51.216C72.0089 51.216 72.0108 51.2187 72.0122 51.2207C72.0122 51.2207 72.0142 51.2253 72.0168 51.2266C72.0175 51.2293 72.0161 51.23 72.0135 51.2286ZM55.8044 71.8276C55.2412 73.5632 55.9876 74.1059 57.4637 73.0324L69.3246 64.4118C70.8007 63.3383 73.2163 63.3377 74.6938 64.4091L86.5513 73.0185C88.0281 74.0899 88.7752 73.5479 88.2113 71.8124L84.2592 59.6397C83.8193 58.2856 84.2399 55.9961 85.3903 55.1588L94.2273 47.1366C95.3412 46.1859 95.1627 45.2438 93.8279 44.9313C94.0442 44.1803 85.7937 43.1069 86.0219 42.9403L82.6351 42.8813C81.2114 42.8813 78.5768 41.6772 78.1377 40.3238L71.707 29.1973C71.2678 27.8432 69.8573 27.7835 69.4175 29.1376L62.9868 39.7598C62.7068 40.6216 61.3003 41.3786 60.4193 41.7614C59.7386 42.0573 59.0732 42.2125 58.5398 42.2981C58.5252 42.3744 57.1293 42.4772 57.2826 42.5887L49.3545 44.0768C47.9308 44.0768 48.2745 45.1748 49.4248 46.0127C49.7499 46.2489 56.0983 51.2572 55.9743 51.6393L58.8549 54.4549C60.0053 55.2928 60.3622 57.7807 59.9231 59.1348L55.8044 71.8276Z" fill="url(#paint22_radial_1_7634)"/>
<path d="M71.8495 51.4386C71.8468 51.4379 71.8442 51.4366 71.8435 51.4366C71.8428 51.4366 71.8415 51.4366 71.8408 51.4366C71.8402 51.4366 71.8408 51.4373 71.8408 51.4366C71.8415 51.4359 71.8415 51.4346 71.8428 51.4326C71.8435 51.4313 71.8442 51.4293 71.8442 51.4286C71.8442 51.4273 71.8448 51.4273 71.8448 51.4273C71.8448 51.428 71.8468 51.4293 71.8481 51.4313C71.8488 51.4326 71.8501 51.4353 71.8528 51.4379C71.8534 51.4386 71.8528 51.4393 71.8495 51.4386ZM56.144 71.3967C55.598 73.0785 56.3218 73.604 57.7521 72.565L69.2448 64.2117C70.6752 63.1714 73.0165 63.1708 74.4475 64.2091L85.9362 72.5504C87.3672 73.5887 88.091 73.0632 87.545 71.3821L83.7595 59.7229C83.3428 58.4405 83.725 56.2233 84.8156 55.4285L93.1471 47.7028C94.1986 46.7912 94.0341 45.8737 92.7782 45.5473C93.0044 44.7618 85.2343 43.6399 85.4731 43.4654L82.1984 43.4037C80.8503 43.4037 78.245 42.2533 77.8284 40.9709L71.4521 30.405C71.0354 29.1226 69.6323 29.0596 69.2156 30.342L62.8387 40.3811C62.5733 41.1971 61.1721 41.9123 60.3369 42.2712C59.6728 42.5565 59.0293 42.7038 58.5224 42.7934C58.5071 42.873 57.1909 42.9805 57.3514 43.0972L50.041 44.653C48.6923 44.653 49.0737 45.7337 50.1638 46.5272C50.5034 46.774 56.5341 51.5686 56.404 51.968L59.1142 54.6927C60.2049 55.4869 60.5207 57.9117 60.104 59.1948L56.144 71.3967Z" fill="url(#paint23_radial_1_7634)"/>
<path d="M71.6866 51.6481C71.6839 51.6474 71.6806 51.6461 71.6806 51.6461H71.6786C71.6786 51.6461 71.6786 51.6434 71.6799 51.6421C71.6813 51.6401 71.6819 51.6381 71.6819 51.6381C71.6819 51.6361 71.6826 51.6361 71.6826 51.6361C71.6826 51.6375 71.6839 51.6388 71.6852 51.6401C71.6859 51.6414 71.6872 51.6441 71.6892 51.6468C71.6905 51.6481 71.6892 51.6487 71.6866 51.6481ZM56.4846 70.9667C55.9565 72.5954 56.6564 73.1036 58.041 72.0978L69.1648 64.0119C70.5501 63.0054 72.8157 63.0048 74.2003 64.0099L85.3222 72.0839C86.7074 73.0903 87.4087 72.5808 86.8799 70.9534L83.2609 59.8083C82.8674 58.5969 83.2124 56.4514 84.2421 55.7017L92.0673 48.2719C93.0565 47.4001 92.9059 46.5058 91.729 46.1655C91.9645 45.3468 84.676 44.1751 84.9254 43.9934L81.7615 43.929C80.4877 43.929 77.9123 42.833 77.5188 41.6216L71.197 31.617C70.8035 30.4055 69.407 30.3399 69.0136 31.5506L62.6904 41.0059C62.4403 41.7768 61.0444 42.4496 60.2536 42.7846C59.6061 43.0586 58.9851 43.1986 58.5041 43.2915C58.4875 43.3751 57.2522 43.4865 57.4194 43.6086L50.7273 45.2313C49.4542 45.2313 49.8722 46.2948 50.9018 47.0445C51.2561 47.3019 56.9689 51.8829 56.8329 52.2996L59.3732 54.9328C60.4029 55.6831 60.6775 58.0449 60.2848 59.2564L56.4846 70.9667Z" fill="url(#paint24_radial_1_7634)"/>
<path d="M71.5238 51.8585C71.5218 51.8578 71.5185 51.8565 71.5185 51.8565H71.5158C71.5158 51.8565 71.5165 51.8545 71.5179 51.8525C71.5185 51.8512 71.5192 51.8485 71.5192 51.8485C71.5192 51.8485 71.5212 51.8499 71.5225 51.8512C71.5225 51.8512 71.5245 51.8545 71.5265 51.8565C71.5278 51.8585 71.5265 51.8592 71.5238 51.8585ZM56.8248 70.5375C56.3139 72.1118 56.9913 72.6028 58.3301 71.6302L69.0857 63.8129C70.4238 62.839 72.6152 62.8383 73.9546 63.8103L84.7076 71.6176C86.0471 72.5895 86.7245 72.0979 86.2136 70.5243L82.7624 59.894C82.3915 58.7536 82.6987 56.6797 83.6673 55.9745L90.9864 48.8412C91.9138 48.0079 91.7758 47.1388 90.6792 46.7832C90.924 45.93 84.1158 44.71 84.3759 44.5202L81.3241 44.4532C80.1252 44.4532 77.5796 43.411 77.2095 42.2712L70.942 32.8279C70.5711 31.6874 69.1812 31.6191 68.811 32.7589L62.5429 41.6303C62.3074 42.3561 60.9168 42.9864 60.1705 43.2975C59.5395 43.5603 58.9404 43.6929 58.486 43.7898C58.4701 43.8767 57.3137 43.9935 57.4882 44.1202L51.4131 45.8106C50.2143 45.8106 50.6707 46.8569 51.64 47.5621C52.0089 47.8301 57.4026 52.1969 57.2626 52.6314L59.6324 55.1737C60.6017 55.8796 60.8359 58.1784 60.4663 59.3188L56.8248 70.5375Z" fill="url(#paint25_radial_1_7634)"/>
<path d="M71.3595 52.0681L71.3548 52.0661H71.3529H71.3515L71.3542 52.0621L71.3555 52.0588L71.3562 52.0575L71.3588 52.0608C71.3588 52.0608 71.3608 52.0641 71.3628 52.0661C71.3641 52.0681 71.3628 52.0688 71.3595 52.0681ZM57.1646 70.1082C56.6717 71.6282 57.3252 72.1032 58.6176 71.1638L69.005 63.6132C70.298 62.6731 72.4144 62.6725 73.7074 63.6112L84.0915 71.1512C85.3845 72.0899 86.0393 71.6142 85.5451 70.095L82.2604 59.9783C81.9141 58.9095 82.1828 56.9072 83.091 56.2458L89.9045 49.4091C90.7696 48.6149 90.6456 47.7697 89.6272 47.4008C89.8826 46.5138 83.5554 45.2447 83.8261 45.0476L80.8858 44.978C79.7619 44.978 77.2462 43.9901 76.8985 42.9207L70.6854 34.0379C70.3385 32.9691 68.9545 32.8975 68.6069 33.967L62.3932 42.2546C62.1722 42.9346 60.7877 43.5224 60.0857 43.8103C59.4707 44.0624 58.8942 44.1872 58.467 44.288C58.4497 44.3789 57.3736 44.4996 57.5547 44.6323L52.0973 46.3904C50.9735 46.3904 51.467 47.4194 52.3753 48.0809C52.7594 48.3595 57.8354 52.5119 57.6887 52.9637L59.8887 55.4145C60.7976 56.0766 60.9907 58.3124 60.6437 59.3818L57.1646 70.1082Z" fill="url(#paint26_radial_1_7634)"/>
<path d="M71.1964 52.2777C71.1951 52.277 71.1918 52.2757 71.1918 52.2757H71.1898C71.1898 52.2757 71.1898 52.2737 71.1911 52.2724C71.1925 52.271 71.1925 52.2684 71.1925 52.2684C71.1925 52.2671 71.1931 52.2671 71.1931 52.2671C71.1931 52.2684 71.1945 52.2697 71.1958 52.2711C71.1958 52.2711 71.1978 52.2744 71.1998 52.2764C71.2004 52.2777 71.1998 52.2783 71.1964 52.2777ZM57.5045 69.6776C57.0288 71.1438 57.6591 71.6016 58.9063 70.696L68.9255 63.4128C70.1728 62.5065 72.2135 62.5059 73.4607 63.4108L83.4773 70.6834C84.7245 71.589 85.3561 71.1305 84.8798 69.6643L81.7623 60.0624C81.4386 59.0653 81.6688 57.134 82.5166 56.517L88.8246 49.9762C89.6273 49.2206 89.5179 48.4012 88.5784 48.0171C88.8431 47.0956 82.997 45.778 83.2776 45.573L80.4494 45.5007C79.4005 45.5007 76.9146 44.5659 76.5902 43.5688L70.4315 35.2466C70.1077 34.2488 68.7305 34.1752 68.406 35.173L62.246 42.8768C62.0397 43.5117 60.6604 44.0564 60.0043 44.3211C59.4059 44.5626 58.8512 44.68 58.4499 44.7842C58.4319 44.8784 57.4355 45.0044 57.6239 45.1411L52.7848 46.9669C51.7359 46.9669 52.2673 47.9786 53.1145 48.5963C53.5132 48.8862 58.2714 52.8244 58.1195 53.2934L60.1489 55.6532C60.9968 56.2709 61.1494 58.445 60.8263 59.4421L57.5045 69.6776Z" fill="url(#paint27_radial_1_7634)"/>
<path d="M71.0329 52.4874C71.0315 52.4867 71.0289 52.4854 71.0289 52.4854C71.0275 52.4854 71.0269 52.4854 71.0262 52.4854C71.0262 52.4854 71.0269 52.4834 71.0276 52.4821C71.0289 52.4801 71.0289 52.4794 71.0289 52.4788C71.0283 52.4788 71.0289 52.4781 71.0289 52.4788C71.0289 52.4795 71.0309 52.4801 71.0322 52.4814C71.0329 52.4821 71.0335 52.4847 71.0355 52.4867C71.0368 52.4881 71.0355 52.4881 71.0329 52.4874ZM57.8438 69.2478C57.386 70.6602 57.9937 71.1021 59.1945 70.229L68.8455 63.2152C70.047 62.3414 72.0121 62.3408 73.2142 63.2125L82.8619 70.2177C84.0634 71.0895 84.6718 70.6489 84.2133 69.2365L81.2624 60.1488C80.9618 59.2226 81.1542 57.3637 81.9417 56.7898L87.7428 50.5455C88.4825 49.8297 88.3877 49.0336 87.5272 48.6355C87.8025 47.6802 82.436 46.3135 82.7279 46.1018L80.0111 46.0269C79.0365 46.0269 76.5805 45.1465 76.2793 44.2197L70.175 36.4588C69.8745 35.5327 68.5032 35.4557 68.202 36.3825L62.0964 43.5025C61.9053 44.0923 60.5307 44.5939 59.9197 44.836C59.3378 45.0669 58.8051 45.1764 58.4302 45.2845C58.4117 45.382 57.4955 45.5127 57.6912 45.6547L53.4691 47.5488C52.4952 47.5488 53.0637 48.5433 53.8512 49.1158C54.2645 49.4164 58.7042 53.1409 58.547 53.6272L60.4066 55.8955C61.1941 56.4687 61.3056 58.5797 61.005 59.5065L57.8438 69.2478Z" fill="url(#paint28_radial_1_7634)"/>
<path d="M70.8699 52.6975L70.8659 52.6955H70.8632L70.8652 52.6922L70.8659 52.6889L70.8672 52.6882L70.8692 52.6916C70.8692 52.6916 70.8712 52.6949 70.8725 52.6969C70.8725 52.6969 70.8725 52.6982 70.8699 52.6975ZM58.1843 68.8183C57.7438 70.177 58.3283 70.6003 59.4833 69.7617L68.7655 63.0146C69.9212 62.174 71.8119 62.174 72.9676 63.0126L82.2478 69.7504C83.4028 70.5897 83.988 70.1644 83.5475 68.8064L80.763 60.2328C80.4857 59.3776 80.6403 57.591 81.3667 57.0616L86.6623 51.1132C87.3403 50.4365 87.258 49.665 86.4772 49.253C86.7625 48.2631 81.8769 46.848 82.1788 46.6277L79.5741 46.5501C78.6752 46.5501 76.2483 45.7235 75.9703 44.8683L69.9198 37.6681C69.6425 36.8129 68.2772 36.7339 67.9999 37.5891L61.948 44.1253C61.7715 44.6699 60.4015 45.1277 59.8363 45.3473C59.2704 45.5669 58.7602 45.6684 58.4125 45.7812C58.3933 45.882 57.5574 46.0167 57.7597 46.1647L54.1553 48.1258C53.257 48.1258 53.8627 49.1024 54.5892 49.6318C55.0177 49.9436 59.1397 53.4538 58.9758 53.9574L60.6656 56.1341C61.3927 56.6635 61.463 58.7115 61.1857 59.5667L58.1843 68.8183Z" fill="url(#paint29_radial_1_7634)"/>
<path d="M70.7065 52.9081C70.7052 52.9074 70.7025 52.9067 70.7025 52.9067H70.7005C70.7005 52.9067 70.7006 52.9054 70.7019 52.9034C70.7025 52.9021 70.7032 52.9001 70.7032 52.9001C70.7032 52.8988 70.7039 52.8988 70.7039 52.8988C70.7039 52.9001 70.7045 52.9008 70.7059 52.9021C70.7059 52.9021 70.7078 52.9054 70.7092 52.9067C70.7105 52.9081 70.7092 52.9081 70.7065 52.9081ZM58.5245 68.3893C58.1012 69.6936 58.6625 70.101 59.7718 69.2949L68.6857 62.8151C69.7956 62.0084 71.6114 62.0077 72.7214 62.8131L81.6333 69.2836C82.7426 70.0897 83.3045 69.6824 82.8812 68.3774L80.2646 60.318C80.0099 59.5345 80.1273 57.8188 80.7934 57.3338L85.5827 51.682C86.1984 51.0445 86.1301 50.2974 85.4282 49.8715C85.7227 48.8472 81.3188 47.3836 81.6306 47.1561L79.1368 47.0751C78.3128 47.0751 75.9165 46.3029 75.6617 45.5187L69.6656 38.8791C69.4115 38.0949 68.0528 38.0133 67.798 38.7975L61.8012 44.7498C61.6393 45.2487 60.2747 45.6627 59.7545 45.8604C59.2045 46.0687 58.7169 46.1629 58.3951 46.2797C58.3752 46.3838 57.6189 46.5232 57.8292 46.6764L54.8425 48.7052C54.0185 48.7052 54.662 49.6645 55.3281 50.1502C55.7706 50.4713 59.5747 53.7685 59.4056 54.2893L60.9255 56.3758C61.5916 56.8608 61.6214 58.8465 61.3673 59.6306L58.5245 68.3893Z" fill="url(#paint30_radial_1_7634)"/>
<path d="M70.5435 53.117C70.5421 53.1164 70.5395 53.1157 70.5395 53.1157H70.5375C70.5375 53.1157 70.5382 53.1137 70.5395 53.1124C70.5395 53.111 70.5401 53.1104 70.5401 53.1091C70.5401 53.1091 70.5415 53.1104 70.5428 53.1111C70.5428 53.1124 70.5441 53.1144 70.5461 53.1157C70.5468 53.117 70.5461 53.117 70.5435 53.117ZM58.8643 67.9587C58.4583 69.2093 58.9964 69.6001 60.0599 68.8278L68.6062 62.6161C69.6704 61.8425 71.4112 61.8425 72.4747 62.6141L81.0184 68.8179C82.0819 69.5901 82.6206 69.1994 82.2146 67.9481L79.7652 60.4029C79.5337 59.6903 79.6133 58.0477 80.2183 57.6065L84.5015 52.2512C85.0561 51.6522 85.001 50.929 84.3781 50.4892C84.6826 49.431 80.7597 47.9183 81.0815 47.6835L78.6997 47.5999C77.9507 47.5999 75.5836 46.8814 75.352 46.1682L69.4103 40.0905C69.1788 39.3779 67.8274 39.293 67.5965 40.0056L61.6534 45.3734C61.5061 45.8272 60.1454 46.1967 59.6717 46.3719C59.1377 46.5696 58.6733 46.6565 58.378 46.7766C58.3575 46.8847 57.6814 47.0287 57.8977 47.1866L55.5286 49.283C54.7796 49.283 55.4609 50.2251 56.066 50.6663C56.5237 50.9987 60.0101 54.0817 59.835 54.6204L61.185 56.6153C61.7908 57.0565 61.7795 58.9791 61.5479 59.6917L58.8643 67.9587Z" fill="url(#paint31_radial_1_7634)"/>
<path d="M70.38 53.3271C70.3787 53.3264 70.3761 53.3257 70.3761 53.3257H70.3747C70.3747 53.3257 70.3747 53.3237 70.3761 53.3224C70.3767 53.3211 70.3767 53.3198 70.3767 53.3198L70.3794 53.3217C70.3794 53.3231 70.3807 53.3251 70.3827 53.3264C70.3827 53.3264 70.3827 53.3277 70.38 53.3271ZM59.2045 67.5285C58.8164 68.7254 59.3305 69.0989 60.3489 68.3598L68.5271 62.4161C69.5448 61.6764 71.2107 61.6757 72.2284 62.4141L80.4039 68.3499C81.4216 69.089 81.9371 68.7148 81.549 67.5186L79.2661 60.4869C79.0578 59.846 79.0989 58.2743 79.6436 57.8769L83.4212 52.8182C83.9128 52.2583 83.8717 51.5603 83.3276 51.1052C83.6415 50.0132 80.1989 48.4515 80.5319 48.2086L78.2616 48.1231C77.5869 48.1231 75.2503 47.4583 75.0413 46.8168L69.154 41.2996C68.9457 40.6581 67.6009 40.5705 67.3926 41.2121L61.5046 45.9968C61.3719 46.4048 60.0152 46.7292 59.5879 46.8838C59.0698 47.0709 58.6279 47.1498 58.3593 47.2739C58.338 47.3853 57.7422 47.5346 57.9658 47.6971L56.2137 49.8613C55.5397 49.8613 56.2582 50.7854 56.8035 51.1828C57.2759 51.5265 60.4438 54.3952 60.2633 54.9512L61.4429 56.8545C61.9882 57.2519 61.9365 59.1115 61.7282 59.7531L59.2045 67.5285Z" fill="url(#paint32_radial_1_7634)"/>
<path d="M70.2172 53.5359C70.2158 53.5346 70.2139 53.5346 70.2132 53.5346H70.2119C70.2119 53.5339 70.2119 53.5326 70.2132 53.5313C70.2139 53.5306 70.2138 53.5293 70.2138 53.5287C70.2138 53.5293 70.2159 53.53 70.2165 53.5306C70.2165 53.5313 70.2178 53.5333 70.2192 53.5346C70.2198 53.5359 70.2192 53.5359 70.2172 53.5359ZM59.5445 67.0979C59.1736 68.241 59.6652 68.5979 60.6372 67.8914L68.4465 62.215C69.4184 61.5084 71.0093 61.5078 71.9812 62.213L79.7885 67.8821C80.7611 68.588 81.2528 68.2304 80.8819 67.0879L78.7655 60.571C78.5804 60.0011 78.5837 58.5011 79.0674 58.1488L82.3395 53.386C82.768 52.8645 82.7415 52.1912 82.2764 51.7221C82.6002 50.5956 79.6386 48.9854 79.9816 48.7353L77.8234 48.6471C77.2244 48.6471 74.9163 48.0361 74.7319 47.4662L68.8983 42.5097C68.7132 41.9398 67.3743 41.8489 67.1893 42.4194L61.3557 46.6203C61.2376 46.9832 59.8855 47.2625 59.504 47.3965C59.0011 47.573 58.5825 47.644 58.3404 47.7714C58.3178 47.8861 57.8023 48.04 58.0332 48.2079L56.8994 50.4397C56.3003 50.4397 57.0559 51.3473 57.5402 51.7002C58.0272 52.0545 60.878 54.7089 60.6916 55.2821L61.7013 57.0946C62.1856 57.4476 62.0927 59.2448 61.9076 59.8147L59.5445 67.0979Z" fill="url(#paint33_radial_1_7634)"/>
<path d="M70.0529 53.7467L70.0503 53.7454H70.0483C70.0483 53.7454 70.049 53.7434 70.0496 53.7421L70.0509 53.7394L70.0529 53.7414C70.0529 53.7414 70.0543 53.7441 70.0556 53.7454C70.0563 53.7467 70.0549 53.7467 70.0529 53.7467ZM59.8845 66.6685C59.5308 67.7578 59.9992 68.0975 60.9254 67.4254L68.3665 62.0171C69.2926 61.3437 70.8092 61.3431 71.7354 62.0151L79.1738 67.4168C80.1 68.0895 80.569 67.7492 80.2154 66.6598L78.2663 60.6571C78.1044 60.1582 78.0692 58.7305 78.4938 58.422L81.2584 53.9557C81.6259 53.4734 81.6126 52.8245 81.2265 52.3409C81.5602 51.1806 79.0796 49.5213 79.4332 49.2632L77.3865 49.1717C76.8624 49.1717 74.5842 48.6151 74.4223 48.1162L68.6431 43.7202C68.4813 43.2213 67.1491 43.1284 66.9872 43.6273L61.2074 47.2444C61.1045 47.5622 59.7558 47.7951 59.4207 47.9092C58.9344 48.0744 58.5377 48.1387 58.3221 48.2701C58.2995 48.3888 57.8636 48.5467 58.1011 48.7199L57.585 51.0187C57.0602 51.0187 57.8543 51.909 58.2783 52.2175C58.7798 52.5824 61.3122 55.0232 61.1204 55.6136L61.9597 57.3353C62.3836 57.6444 62.2503 59.3786 62.0884 59.8775L59.8845 66.6685Z" fill="url(#paint34_radial_1_7634)"/>
<path d="M69.89 53.9559C69.8886 53.9545 69.8873 53.9545 69.886 53.9545C69.8867 53.9545 69.8853 53.9532 69.886 53.9519C69.8873 53.9512 69.8873 53.9499 69.8873 53.9492C69.8873 53.9498 69.8886 53.9512 69.8893 53.9512C69.8899 53.9519 69.8906 53.9532 69.8919 53.9552C69.8926 53.9559 69.8919 53.9559 69.89 53.9559ZM60.225 66.2387C59.8893 67.2743 60.3338 67.5968 61.2142 66.9579L68.2871 61.8169C69.1675 61.1767 70.6085 61.176 71.4888 61.8149L78.559 66.9486C79.4394 67.5881 79.8853 67.265 79.5489 66.2301L77.7669 60.7415C77.6282 60.3136 77.5553 58.9575 77.9188 58.6928L80.1778 54.5231C80.483 54.0799 80.4837 53.455 80.1765 52.9581C80.5202 51.7632 78.5206 50.0555 78.8841 49.7902L76.9496 49.696C76.4997 49.696 74.252 49.1931 74.1134 48.7652L68.3886 44.9305C68.2499 44.5026 66.9237 44.4077 66.7851 44.835L61.0596 47.8682C60.9714 48.1402 59.6266 48.326 59.3387 48.4208C58.867 48.5761 58.4948 48.6311 58.305 48.7671C58.2812 48.8892 57.9256 49.0524 58.1697 49.2296L58.2712 51.5967C57.8214 51.5967 58.6527 52.4698 59.0156 52.7338C59.5324 53.1093 61.7463 55.3358 61.5486 55.9435L62.218 57.5742C62.5809 57.839 62.4064 59.5101 62.2677 59.9381L60.225 66.2387Z" fill="url(#paint35_radial_1_7634)"/>
<path d="M69.7268 54.1653L69.7235 54.164H69.7221L69.7228 54.1614L69.7241 54.1594V54.1581L69.7261 54.16C69.7261 54.16 69.7268 54.1627 69.7288 54.164C69.7288 54.164 69.7288 54.1653 69.7268 54.1653ZM60.5648 65.808C60.247 66.7892 60.6683 67.0957 61.5029 66.4893L68.2075 61.6164C69.0421 61.0093 70.4081 61.0093 71.2428 61.6144L77.9454 66.4813C78.7794 67.0871 79.2026 66.7806 78.8835 65.8L77.2687 60.8256C77.1526 60.4693 77.0418 59.1849 77.3444 58.9646L79.0978 55.0908C79.3406 54.6875 79.3552 54.0864 79.127 53.5749C79.4806 52.3462 77.9613 50.5894 78.3362 50.3161L76.5131 50.2199C76.1382 50.2199 73.9204 49.7707 73.8043 49.4145L68.1339 46.1404C68.0185 45.7842 66.6989 45.6853 66.5834 46.0422L60.9124 48.4916C60.8387 48.7185 59.4973 48.8572 59.2565 48.9335C58.8 49.0781 58.4511 49.1252 58.2878 49.2652C58.2633 49.3906 57.988 49.5584 58.2394 49.7409L58.9579 52.1757C58.5837 52.1757 59.4522 53.0309 59.7547 53.2511C60.2861 53.6379 62.1822 55.6501 61.9792 56.2757L62.4788 57.8149C62.7813 58.0358 62.5663 59.644 62.4509 60.0003L60.5648 65.808Z" fill="url(#paint36_radial_1_7634)"/>
<path d="M69.5637 54.3753C69.5623 54.3746 69.5603 54.3746 69.5603 54.3746H69.559C69.559 54.3746 69.559 54.3733 69.5603 54.372L69.561 54.37L69.563 54.3713C69.563 54.3713 69.5643 54.374 69.5656 54.3753C69.5656 54.3753 69.5657 54.376 69.5637 54.3753ZM60.9045 65.379C60.604 66.3058 61.0027 66.5958 61.7909 66.0232L68.1273 61.4183C68.9161 60.8444 70.2072 60.8445 70.9953 61.4163L77.3298 66.0159C78.118 66.5885 78.5174 66.2992 78.2168 65.3717L76.7686 60.9114C76.6757 60.6262 76.5271 59.4134 76.7692 59.2376L78.0165 55.6604C78.1969 55.2955 78.2248 54.7196 78.0762 54.1935C78.4398 52.931 77.4008 51.1251 77.7856 50.8445L76.0746 50.745C75.7747 50.745 73.5861 50.3496 73.4932 50.0649L67.8772 47.3515C67.7843 47.0662 66.472 46.9654 66.3792 47.2507L60.7625 49.1169C60.7042 49.2987 59.3514 49.3544 59.1716 49.4473C58.7132 49.5004 58.4047 49.6211 58.268 49.7644C58.2435 49.8931 58.0471 50.0656 58.3058 50.2534L59.6426 52.7552C59.3428 52.7552 60.249 53.5938 60.4912 53.7696C61.0372 54.1663 62.6148 55.9649 62.4065 56.6077L62.7356 58.056C62.9777 58.2325 62.7217 59.7783 62.6294 60.0636L60.9045 65.379Z" fill="url(#paint37_radial_1_7634)"/>
<path d="M69.3996 54.5845C69.399 54.5831 69.3976 54.5831 69.3976 54.5831H69.3963C69.3963 54.5831 69.3963 54.5818 69.397 54.5812C69.3976 54.5798 69.3976 54.5798 69.3976 54.5792C69.3969 54.5792 69.3976 54.5785 69.3976 54.5792C69.3976 54.5799 69.399 54.5805 69.3996 54.5805C69.3996 54.5818 69.4009 54.5831 69.4016 54.5838C69.4029 54.5845 69.4016 54.5851 69.3996 54.5845ZM61.2447 64.9486C60.9614 65.8217 61.3369 66.0944 62.0793 65.5557L68.0475 61.2182C68.7899 60.6781 70.006 60.6774 70.7484 61.2162L76.714 65.5484C77.457 66.0878 77.8339 65.8144 77.5506 64.9414L76.2688 60.9959C76.1992 60.7823 76.0127 59.6412 76.1945 59.5091L76.9356 56.2278C77.0543 55.9021 77.0961 55.3501 77.0258 54.8107C77.3993 53.5137 76.842 51.6594 77.2368 51.3708L75.6372 51.2686C75.4123 51.2686 73.2535 50.9276 73.1839 50.714L67.6223 48.5618C67.5533 48.3482 66.247 48.244 66.1773 48.4576L60.6144 49.7394C60.57 49.8754 59.2225 49.8887 59.0879 49.9583C58.646 49.9981 58.3594 50.1136 58.2493 50.2609C58.2241 50.3929 58.108 50.57 58.374 50.7631L60.3285 53.3332C60.1042 53.3332 61.0476 54.1539 61.2294 54.2859C61.79 54.6939 63.0499 56.2782 62.8356 56.9383L62.9948 58.2951C63.1759 58.4271 62.8787 59.9105 62.8097 60.1241L61.2447 64.9486Z" fill="url(#paint38_radial_1_7634)"/>
<path d="M69.2364 54.7954L69.2344 54.7948H69.2331C69.2331 54.7948 69.2331 54.7934 69.2337 54.7921L69.2351 54.7901L69.2364 54.7914C69.2364 54.7914 69.237 54.7934 69.239 54.7948C69.239 54.7948 69.239 54.7954 69.2364 54.7954ZM61.5843 64.5194C61.3183 65.3387 61.6706 65.5941 62.3678 65.0886L67.9672 61.0184C68.6645 60.5109 69.805 60.5109 70.5022 61.0164L76.1003 65.0813C76.7969 65.5875 77.1499 65.3314 76.8845 64.5128L75.7699 61.0801C75.7241 60.9375 75.4992 59.8687 75.6206 59.7811L75.8555 56.7963C75.9119 56.5097 75.8953 55.9763 75.9769 55.4283C76.1812 54.0583 76.2827 52.1941 76.6881 51.8982L75.2 51.7934C75.0501 51.7934 72.9211 51.5054 72.8753 51.3635L67.3675 49.7725C67.3217 49.6299 66.0221 49.5238 65.9749 49.6657L60.4664 50.3637C60.4372 50.4546 59.0951 50.4247 59.0056 50.4711C58.5796 50.4977 58.291 50.5965 58.232 50.7591C58.1849 50.8891 58.1703 51.0769 58.4423 51.2746L61.0144 53.9124C60.8645 53.9124 61.8457 54.7158 61.9665 54.804C62.5423 55.2227 63.4844 56.5933 63.2642 57.27L63.2529 58.5359C63.3743 58.6241 63.0359 60.0445 62.9901 60.1871L61.5843 64.5194Z" fill="url(#paint39_radial_1_7634)"/>
<path d="M69.0734 55.0041L69.0714 55.0035H69.0701L69.0714 55.0015L69.0721 55.0002L69.0734 55.0008C69.0734 55.0008 69.0741 55.0028 69.0754 55.0035C69.0754 55.0035 69.0754 55.0041 69.0734 55.0041ZM61.9249 64.0886C61.6768 64.8542 62.0058 65.0937 62.6567 64.6206L67.8879 60.8191C68.5387 60.3455 69.6055 60.3455 70.2557 60.8172L75.4855 64.6153C76.137 65.0877 76.4661 64.8489 76.2173 64.0833L75.2706 61.1655C75.2473 61.0938 74.984 60.0973 75.045 60.0536L74.7743 57.3653C74.7684 57.1172 74.8022 56.6077 74.9263 56.0464C75.2321 54.6592 75.723 52.7292 76.139 52.426L74.7624 52.3186C74.6874 52.3186 72.589 52.085 72.5657 52.0134L67.1123 50.9831C67.0897 50.9121 65.7961 50.8026 65.7722 50.8736L60.3187 50.9884C60.3041 51.0335 58.9673 50.9605 58.9229 50.9837C58.5129 50.997 58.2588 51.0978 58.215 51.2571C58.1765 51.3937 58.2322 51.5821 58.5122 51.7858L61.702 54.4906C61.627 54.4906 62.6461 55.2768 62.7064 55.3206C63.2969 55.7498 63.9205 56.9069 63.6949 57.6015L63.5145 58.7758C63.5749 58.8196 63.196 60.1776 63.1722 60.2486L61.9249 64.0886Z" fill="url(#paint40_radial_1_7634)"/>
<path d="M68.9101 55.2143C68.9094 55.213 68.9081 55.213 68.9081 55.213V55.211L68.9087 55.2097L68.9101 55.211C68.9101 55.211 68.9107 55.213 68.9121 55.2137C68.9121 55.2137 68.912 55.2143 68.9101 55.2143ZM58.8398 51.4951C58.0921 51.4951 57.9747 51.8547 58.5797 52.2959L63.4434 55.8373C64.0484 56.2771 64.3542 57.2199 64.1227 57.9318L62.2644 63.6592C62.0336 64.3704 62.3394 64.5926 62.9444 64.1535L67.8074 60.6193C68.4125 60.1788 69.4037 60.1782 70.0087 60.6174L74.8697 64.1475C75.4748 64.5867 75.7813 64.3644 75.5504 63.6532L73.6928 57.9324C73.4606 57.2206 74.9845 53.3912 75.5882 52.9514L58.8398 51.4951Z" fill="white"/>
</g>
<path d="M49.0088 84.6577C48.5417 84.6577 48.1649 84.4772 47.9154 84.1342C47.4828 83.5384 47.4882 82.5413 47.9333 81.1687L55.5628 57.6651C56.4585 54.9013 55.2729 51.2597 52.9197 49.5467L32.953 35.0533C31.2234 33.7941 31.0734 32.8746 31.2526 32.3246C31.4324 31.7719 32.1018 31.1118 34.2632 31.1118H58.9364C61.7892 31.1118 64.9584 28.7745 65.8574 26.0067L73.4816 2.46334C74.143 0.427261 74.9928 0 75.5899 0C76.1897 0 77.0455 0.431234 77.7129 2.48523L85.3371 25.9961C86.2381 28.7699 89.408 31.1125 92.2581 31.1125H116.931C119.093 31.1125 119.762 31.7726 119.942 32.3252C120.121 32.8759 119.972 33.7947 118.242 35.0533L98.2721 49.5062C95.9169 51.2225 94.7327 54.8741 95.633 57.6466L103.259 81.1315C103.698 82.4849 103.704 83.5119 103.276 84.1004C103.026 84.4447 102.648 84.6251 102.181 84.6251C101.542 84.6251 100.752 84.2875 99.8332 83.6207L79.8737 69.1319C78.7432 68.3099 77.226 67.8582 75.6019 67.8582C73.9745 67.8582 72.4539 68.3119 71.3207 69.1359L51.3573 83.6499C50.4391 84.3193 49.6483 84.6577 49.0088 84.6577ZM54.1272 47.8443C57.1982 50.0801 58.6856 54.6624 57.5133 58.2762L49.8838 81.7896C49.8274 81.9654 49.7843 82.1207 49.7505 82.2574C49.8699 82.1831 50.0039 82.0941 50.1532 81.986L70.116 67.474C71.5961 66.3986 73.5439 65.8055 75.6012 65.8055C77.6559 65.8055 79.6017 66.3973 81.0805 67.472L101.04 81.9628C101.19 82.0709 101.324 82.1612 101.443 82.2341C101.41 82.0995 101.367 81.9455 101.31 81.7711L93.6838 58.2914C92.5122 54.683 93.9996 50.106 97.0687 47.8702L117.037 33.3509C117.128 33.2852 117.211 33.1632 117.289 33.1632C117.262 33.1632 92.2587 33.1632 92.2587 33.1632C88.4738 33.1632 84.5775 30.2951 83.388 26.6349L75.7644 3.08564C75.7094 2.91779 75.6556 2.7725 75.6039 2.64578C75.5495 2.77913 75.4918 2.93571 75.4321 3.11882L67.8079 26.6296C66.617 30.2931 62.7206 33.1638 58.9364 33.1638C58.9364 33.1638 33.972 33.1632 33.9627 33.1632C34.0257 33.2089 54.1272 47.8443 54.1272 47.8443Z" fill="#E6E6E6"/>
<path d="M71.5713 39.3557L71.5771 39.3574V39.354L71.5713 39.3557Z" fill="white"/>
<path d="M64.4611 51.4953L107.628 37.4331H74.6448L64.4551 51.4866L64.4611 51.4953Z" fill="white"/>
<path d="M64.4687 51.5065L80.9437 56.8744L107.628 37.4331L64.4607 51.4953L64.4687 51.5065Z" fill="#F2F2F2"/>
<path d="M71.5757 39.3541V39.3567L71.5949 39.364L71.5863 39.3501L71.5757 39.3541Z" fill="white"/>
<path d="M71.5757 39.3379V39.3443L71.5778 39.3414L71.5757 39.3379Z" fill="white"/>
<path d="M71.5871 39.351L71.5778 39.3403L71.5757 39.3432V39.3553L71.5871 39.351Z" fill="white"/>
<path d="M71.5768 39.3428L71.5676 39.3565L71.5714 39.3572L71.5768 39.3557V39.3428Z" fill="white"/>
<path d="M71.5659 39.3569L71.5716 39.3547L71.5681 39.354L71.5659 39.3569Z" fill="white"/>
<path d="M64.4537 51.5003L64.4491 51.499L64.4445 51.501L37.769 88.2905L64.4537 68.8969L91.1364 88.2699L64.469 51.5063L64.4537 51.5003Z" fill="#F2F2F2"/>
<path d="M64.469 51.5059L91.1364 88.2695L80.9441 56.8737L64.469 51.5059Z" fill="white"/>
<path d="M47.9614 56.8703L37.769 88.29L64.4445 51.5005L47.9614 56.8703Z" fill="white"/>
<path d="M64.4552 51.4861L74.6449 37.4325L64.4539 6.06396V51.4834L64.4552 51.4861Z" fill="#F2F2F2"/>
<path d="M64.4533 6.06396L54.2603 37.4325L64.4533 51.4834V6.06396Z" fill="white"/>
<path d="M64.4457 51.4986L21.2773 37.4331L47.9614 56.8711L64.4444 51.5012L64.4457 51.4986Z" fill="#F2F2F2"/>
<path d="M64.4537 51.4893V51.484L54.2607 37.4331H21.2773L64.4457 51.4986L64.4537 51.4893Z" fill="white"/>
<path d="M107.254 37.7381H74.271L64.0786 6.21631L53.8942 37.6346L53.8862 37.7374H20.9036L47.5869 57.0222L37.3946 88.3648L64.0786 68.9335L90.7626 88.2879L80.5709 57.0354L107.254 37.7381ZM64.07 51.5004L64.0713 51.4977L64.0733 51.4958L64.0766 51.5011L64.0746 51.4997L64.07 51.5004ZM64.0793 51.5011L64.0799 51.4958L64.0866 51.4997L64.0952 51.5084L64.0793 51.5011Z" fill="url(#paint41_linear_1_7634)"/>
<path opacity="0.9" d="M91.7921 38.3499C82.7389 38.3877 75.3987 38.0023 75.396 37.4894C75.394 36.9766 82.7323 36.5301 91.7848 36.4923C100.839 36.4545 108.179 36.8393 108.182 37.3521C108.184 37.8656 100.846 38.3114 91.7921 38.3499Z" fill="url(#paint42_radial_1_7634)"/>
<path opacity="0.9" d="M70.4292 22.0005C73.3151 30.5814 75.261 37.6702 74.7747 37.834C74.289 37.9973 71.5557 31.1732 68.6698 22.5923C65.7831 14.0114 63.838 6.92195 64.3236 6.75875C64.8092 6.59488 67.5432 13.4196 70.4292 22.0005Z" fill="url(#paint43_radial_1_7634)"/>
</g>
</g>
</g>
<defs>
<radialGradient id="paint0_radial_1_7634" cx="0" cy="0" r="1" gradientUnits="userSpaceOnUse" gradientTransform="translate(49.251 59.5623) scale(74.3438)">
<stop stop-color="#E4E4E4"/>
<stop offset="1" stop-color="#181818"/>
</radialGradient>
<radialGradient id="paint1_radial_1_7634" cx="0" cy="0" r="1" gradientUnits="userSpaceOnUse" gradientTransform="translate(49.6371 59.5919) scale(72.7572 72.7571)">
<stop stop-color="#E5E5E5"/>
<stop offset="1" stop-color="#1E1E1E"/>
</radialGradient>
<radialGradient id="paint2_radial_1_7634" cx="0" cy="0" r="1" gradientUnits="userSpaceOnUse" gradientTransform="translate(50.0268 59.6218) scale(71.1666)">
<stop stop-color="#E5E5E5"/>
<stop offset="1" stop-color="#232323"/>
</radialGradient>
<radialGradient id="paint3_radial_1_7634" cx="0" cy="0" r="1" gradientUnits="userSpaceOnUse" gradientTransform="translate(50.4149 59.6517) scale(69.5783 69.5783)">
<stop stop-color="#E6E6E6"/>
<stop offset="1" stop-color="#292929"/>
</radialGradient>
<radialGradient id="paint4_radial_1_7634" cx="0" cy="0" r="1" gradientUnits="userSpaceOnUse" gradientTransform="translate(50.8027 59.6807) scale(67.9898 67.9898)">
<stop stop-color="#E7E7E7"/>
<stop offset="1" stop-color="#2F2F2F"/>
</radialGradient>
<radialGradient id="paint5_radial_1_7634" cx="0" cy="0" r="1" gradientUnits="userSpaceOnUse" gradientTransform="translate(51.1906 59.7103) scale(66.4017 66.4017)">
<stop stop-color="#E7E7E7"/>
<stop offset="1" stop-color="#343434"/>
</radialGradient>
<radialGradient id="paint6_radial_1_7634" cx="0" cy="0" r="1" gradientUnits="userSpaceOnUse" gradientTransform="translate(51.5785 59.739) scale(64.8134)">
<stop stop-color="#E8E8E8"/>
<stop offset="1" stop-color="#3A3A3A"/>
</radialGradient>
<radialGradient id="paint7_radial_1_7634" cx="0" cy="0" r="1" gradientUnits="userSpaceOnUse" gradientTransform="translate(51.9656 59.7698) scale(63.2253 63.2253)">
<stop stop-color="#E9E9E9"/>
<stop offset="1" stop-color="#3F3F3F"/>
</radialGradient>
<radialGradient id="paint8_radial_1_7634" cx="0" cy="0" r="1" gradientUnits="userSpaceOnUse" gradientTransform="translate(52.3525 59.7988) scale(61.6374 61.6374)">
<stop stop-color="#E9E9E9"/>
<stop offset="1" stop-color="#454545"/>
</radialGradient>
<radialGradient id="paint9_radial_1_7634" cx="0" cy="0" r="1" gradientUnits="userSpaceOnUse" gradientTransform="translate(52.7403 59.8296) scale(60.0497 60.0497)">
<stop stop-color="#EAEAEA"/>
<stop offset="1" stop-color="#4B4B4B"/>
</radialGradient>
<radialGradient id="paint10_radial_1_7634" cx="0" cy="0" r="1" gradientUnits="userSpaceOnUse" gradientTransform="translate(53.127 59.8596) scale(58.4621 58.462)">
<stop stop-color="#EBEBEB"/>
<stop offset="1" stop-color="#505050"/>
</radialGradient>
<radialGradient id="paint11_radial_1_7634" cx="0" cy="0" r="1" gradientUnits="userSpaceOnUse" gradientTransform="translate(53.5147 59.8878) scale(56.8743 56.8743)">
<stop stop-color="#EBEBEB"/>
<stop offset="1" stop-color="#565656"/>
</radialGradient>
<radialGradient id="paint12_radial_1_7634" cx="0" cy="0" r="1" gradientUnits="userSpaceOnUse" gradientTransform="translate(53.9003 59.9173) scale(55.2871 55.2871)">
<stop stop-color="#ECECEC"/>
<stop offset="1" stop-color="#5C5C5C"/>
</radialGradient>
<radialGradient id="paint13_radial_1_7634" cx="0" cy="0" r="1" gradientUnits="userSpaceOnUse" gradientTransform="translate(54.2877 59.9466) scale(53.7 53.7)">
<stop stop-color="#EDEDED"/>
<stop offset="1" stop-color="#616161"/>
</radialGradient>
<radialGradient id="paint14_radial_1_7634" cx="0" cy="0" r="1" gradientUnits="userSpaceOnUse" gradientTransform="translate(54.6738 59.9771) scale(52.1132)">
<stop stop-color="#EDEDED"/>
<stop offset="1" stop-color="#676767"/>
</radialGradient>
<radialGradient id="paint15_radial_1_7634" cx="0" cy="0" r="1" gradientUnits="userSpaceOnUse" gradientTransform="translate(55.0598 60.0065) scale(50.5264 50.5264)">
<stop stop-color="#EEEEEE"/>
<stop offset="1" stop-color="#6D6D6D"/>
</radialGradient>
<radialGradient id="paint16_radial_1_7634" cx="0" cy="0" r="1" gradientUnits="userSpaceOnUse" gradientTransform="translate(55.4456 60.036) scale(48.9401)">
<stop stop-color="#EFEFEF"/>
<stop offset="1" stop-color="#727272"/>
</radialGradient>
<radialGradient id="paint17_radial_1_7634" cx="0" cy="0" r="1" gradientUnits="userSpaceOnUse" gradientTransform="translate(55.8311 60.0657) scale(47.354 47.354)">
<stop stop-color="#EFEFEF"/>
<stop offset="1" stop-color="#787878"/>
</radialGradient>
<radialGradient id="paint18_radial_1_7634" cx="0" cy="0" r="1" gradientUnits="userSpaceOnUse" gradientTransform="translate(56.2169 60.0954) scale(45.7683 45.7683)">
<stop stop-color="#F0F0F0"/>
<stop offset="1" stop-color="#7D7D7D"/>
</radialGradient>
<radialGradient id="paint19_radial_1_7634" cx="0" cy="0" r="1" gradientUnits="userSpaceOnUse" gradientTransform="translate(56.6011 60.1249) scale(44.1829 44.1829)">
<stop stop-color="#F1F1F1"/>
<stop offset="1" stop-color="#838383"/>
</radialGradient>
<radialGradient id="paint20_radial_1_7634" cx="0" cy="0" r="1" gradientUnits="userSpaceOnUse" gradientTransform="translate(56.9852 60.1549) scale(42.598 42.5981)">
<stop stop-color="#F1F1F1"/>
<stop offset="1" stop-color="#898989"/>
</radialGradient>
<radialGradient id="paint21_radial_1_7634" cx="0" cy="0" r="1" gradientUnits="userSpaceOnUse" gradientTransform="translate(57.3691 60.1841) scale(41.0136 41.0136)">
<stop stop-color="#F2F2F2"/>
<stop offset="1" stop-color="#8E8E8E"/>
</radialGradient>
<radialGradient id="paint22_radial_1_7634" cx="0" cy="0" r="1" gradientUnits="userSpaceOnUse" gradientTransform="translate(57.752 60.2139) scale(39.4301 39.4301)">
<stop stop-color="#F2F2F2"/>
<stop offset="1" stop-color="#949494"/>
</radialGradient>
<radialGradient id="paint23_radial_1_7634" cx="0" cy="0" r="1" gradientUnits="userSpaceOnUse" gradientTransform="translate(58.1343 60.2431) scale(37.8469 37.8469)">
<stop stop-color="#F3F3F3"/>
<stop offset="1" stop-color="#9A9A9A"/>
</radialGradient>
<radialGradient id="paint24_radial_1_7634" cx="0" cy="0" r="1" gradientUnits="userSpaceOnUse" gradientTransform="translate(58.5163 60.2726) scale(36.2644)">
<stop stop-color="#F4F4F4"/>
<stop offset="1" stop-color="#9F9F9F"/>
</radialGradient>
<radialGradient id="paint25_radial_1_7634" cx="0" cy="0" r="1" gradientUnits="userSpaceOnUse" gradientTransform="translate(58.8974 60.3028) scale(34.6831 34.6831)">
<stop stop-color="#F4F4F4"/>
<stop offset="1" stop-color="#A5A5A5"/>
</radialGradient>
<radialGradient id="paint26_radial_1_7634" cx="0" cy="0" r="1" gradientUnits="userSpaceOnUse" gradientTransform="translate(59.2766 60.3325) scale(33.1027 33.1027)">
<stop stop-color="#F5F5F5"/>
<stop offset="1" stop-color="#AAAAAA"/>
</radialGradient>
<radialGradient id="paint27_radial_1_7634" cx="0" cy="0" r="1" gradientUnits="userSpaceOnUse" gradientTransform="translate(59.6554 60.3619) scale(31.5235)">
<stop stop-color="#F6F6F6"/>
<stop offset="1" stop-color="#B0B0B0"/>
</radialGradient>
<radialGradient id="paint28_radial_1_7634" cx="0" cy="0" r="1" gradientUnits="userSpaceOnUse" gradientTransform="translate(60.0318 60.3916) scale(29.9456 29.9456)">
<stop stop-color="#F6F6F6"/>
<stop offset="1" stop-color="#B6B6B6"/>
</radialGradient>
<radialGradient id="paint29_radial_1_7634" cx="0" cy="0" r="1" gradientUnits="userSpaceOnUse" gradientTransform="translate(60.4074 60.4208) scale(28.3693 28.3693)">
<stop stop-color="#F7F7F7"/>
<stop offset="1" stop-color="#BBBBBB"/>
</radialGradient>
<radialGradient id="paint30_radial_1_7634" cx="0" cy="0" r="1" gradientUnits="userSpaceOnUse" gradientTransform="translate(60.7805 60.4514) scale(26.7951 26.7951)">
<stop stop-color="#F8F8F8"/>
<stop offset="1" stop-color="#C1C1C1"/>
</radialGradient>
<radialGradient id="paint31_radial_1_7634" cx="0" cy="0" r="1" gradientUnits="userSpaceOnUse" gradientTransform="translate(61.1517 60.4802) scale(25.2231 25.2231)">
<stop stop-color="#F8F8F8"/>
<stop offset="1" stop-color="#C7C7C7"/>
</radialGradient>
<radialGradient id="paint32_radial_1_7634" cx="0" cy="0" r="1" gradientUnits="userSpaceOnUse" gradientTransform="translate(61.5201 60.51) scale(23.6537 23.6537)">
<stop stop-color="#F9F9F9"/>
<stop offset="1" stop-color="#CCCCCC"/>
</radialGradient>
<radialGradient id="paint33_radial_1_7634" cx="0" cy="0" r="1" gradientUnits="userSpaceOnUse" gradientTransform="translate(61.8861 60.5382) scale(22.087)">
<stop stop-color="#FAFAFA"/>
<stop offset="1" stop-color="#D2D2D2"/>
</radialGradient>
<radialGradient id="paint34_radial_1_7634" cx="0" cy="0" r="1" gradientUnits="userSpaceOnUse" gradientTransform="translate(62.248 60.5688) scale(20.5238)">
<stop stop-color="#FAFAFA"/>
<stop offset="1" stop-color="#D8D8D8"/>
</radialGradient>
<radialGradient id="paint35_radial_1_7634" cx="0" cy="0" r="1" gradientUnits="userSpaceOnUse" gradientTransform="translate(62.5613 60.5977) scale(19.0068 19.0068)">
<stop stop-color="#FBFBFB"/>
<stop offset="1" stop-color="#DDDDDD"/>
</radialGradient>
<radialGradient id="paint36_radial_1_7634" cx="0" cy="0" r="1" gradientUnits="userSpaceOnUse" gradientTransform="translate(62.3761 60.6268) scale(17.9565 17.9565)">
<stop stop-color="#FCFCFC"/>
<stop offset="1" stop-color="#E3E3E3"/>
</radialGradient>
<radialGradient id="paint37_radial_1_7634" cx="0" cy="0" r="1" gradientUnits="userSpaceOnUse" gradientTransform="translate(62.2141 60.6562) scale(17.0235 17.0235)">
<stop stop-color="#FCFCFC"/>
<stop offset="1" stop-color="#E8E8E8"/>
</radialGradient>
<radialGradient id="paint38_radial_1_7634" cx="0" cy="0" r="1" gradientUnits="userSpaceOnUse" gradientTransform="translate(62.1025 60.6847) scale(16.3289 16.3289)">
<stop stop-color="#FDFDFD"/>
<stop offset="1" stop-color="#EEEEEE"/>
</radialGradient>
<radialGradient id="paint39_radial_1_7634" cx="0" cy="0" r="1" gradientUnits="userSpaceOnUse" gradientTransform="translate(61.9691 60.7137) scale(15.661 15.661)">
<stop stop-color="#FEFEFE"/>
<stop offset="1" stop-color="#F4F4F4"/>
</radialGradient>
<radialGradient id="paint40_radial_1_7634" cx="0" cy="0" r="1" gradientUnits="userSpaceOnUse" gradientTransform="translate(61.8331 60.7392) scale(15.0035 15.0035)">
<stop stop-color="#FEFEFE"/>
<stop offset="1" stop-color="#F9F9F9"/>
</radialGradient>
<linearGradient id="paint41_linear_1_7634" x1="114.233" y1="3.419" x2="4.54581" y2="115.349" gradientUnits="userSpaceOnUse">
<stop stop-color="#B3B3B3"/>
<stop offset="0.5323" stop-color="#DDDFDF"/>
<stop offset="0.7742" stop-color="white"/>
<stop offset="1" stop-color="#CCCCCC"/>
</linearGradient>
<radialGradient id="paint42_radial_1_7634" cx="0" cy="0" r="1" gradientUnits="userSpaceOnUse" gradientTransform="translate(91.789 37.4211) rotate(89.7413) scale(0.928201 16.3996)">
<stop stop-color="#F5F5F5"/>
<stop offset="0.3469" stop-color="#FAFAFA"/>
<stop offset="1" stop-color="white"/>
</radialGradient>
<radialGradient id="paint43_radial_1_7634" cx="0" cy="0" r="1" gradientUnits="userSpaceOnUse" gradientTransform="translate(69.5492 22.2961) rotate(-18.5576) scale(0.928035 16.396)">
<stop stop-color="#F5F5F5"/>
<stop offset="0.3469" stop-color="#FAFAFA"/>
<stop offset="1" stop-color="white"/>
</radialGradient>
<clipPath id="clip0_1_7634">
<rect width="120" height="120" fill="white"/>
</clipPath>
</defs>
</svg>
